<?xml version="1.0" encoding="UTF-8" standalone="no"?><!DOCTYPE svg PUBLIC "-//W3C//DTD SVG 1.1//EN" "http://www.w3.org/Graphics/SVG/1.1/DTD/svg11.dtd"><svg width="100%" height="100%" viewBox="0 0 4500 4500" version="1.1" xmlns="http://www.w3.org/2000/svg" xmlns:xlink="http://www.w3.org/1999/xlink" xml:space="preserve" xmlns:serif="http://www.serif.com/" style="fill-rule:evenodd;clip-rule:evenodd;stroke-linecap:round;stroke-linejoin:round;stroke-miterlimit:1.5;"><rect id="Artboard1" x="0" y="0" width="4500" height="4500" style="fill:none;"/><path d="M3220.98,3073.81c-0,0 292.51,-319.649 433.079,-384.571" style="fill:none;stroke:#044421;stroke-width:41.67px;"/><path d="M3695.15,1945.36c0,0 13.247,-407.336 -82.792,-519.933" style="fill:none;stroke:#044421;stroke-width:41.67px;"/><path d="M3209.16,3073.81c0,0 39.741,-647.444 -26.493,-769.142" style="fill:none;stroke:#044421;stroke-width:41.67px;"/><path d="M3852.14,549.92c89.618,80.184 -6.994,2883.85 -1831.57,3483" style="fill:none;stroke:#044421;stroke-width:41.67px;"/><path d="M3367,1653.1c0,0 183.69,594.986 125.521,886.972" style="fill:none;stroke:#044421;stroke-width:41.67px;"/><path d="M2720.22,3638.99c0,0 265.194,-459.236 252.257,-912.005c-12.937,-452.769 97.022,-653.28 161.703,-588.599c0,0 51.745,-847.324 226.384,-1047.84c174.639,-200.512 168.171,77.618 206.98,161.703c0,0 71.15,-329.874 219.916,-640.344c148.767,-310.47 51.745,640.344 148.767,756.77c97.022,116.427 355.747,1726.99 -1216.01,2270.31Z" style="fill:none;stroke:#044421;stroke-width:62.5px;"/><path d="M3191.78,2079.83c-0.198,-6.312 -1.877,-60.046 0.822,-78.938c0.116,-0.814 2.35,0.814 2.467,0" style="fill:none;stroke:#044421;stroke-width:20.83px;"/><path d="M3217.27,2013.22c0,-30.46 -1.001,-30.353 4.934,-60.025" style="fill:none;stroke:#044421;stroke-width:20.83px;"/><path d="M3930.26,2048.11c1.606,9.636 1.606,88.65 1.606,96.36" style="fill:none;stroke:#044421;stroke-width:20.83px;"/><path d="M3927.05,2210.32c-0.325,3.894 -2.677,32.119 -8.03,48.18" style="fill:none;stroke:#044421;stroke-width:20.83px;"/><path d="M3016.27,3501.53c40.191,-160.761 136.336,-121.693 195.731,-210.787c104.342,-156.516 178.057,-60.117 311.161,-193.221c20.237,-20.237 15.282,-22.81 35.132,-42.66c0.317,-0.317 -0,0 5.018,-2.509" style="fill:none;stroke:#044421;stroke-width:20.83px;"/><path d="M3647.03,1052.94c4.718,-11.794 31.371,-78.424 86.26,-133.31c78.68,-78.675 40.004,-250.998 58.813,-345.039" style="fill:none;stroke:#044421;stroke-width:20.83px;"/><path d="M622.782,1447.27c5.335,80.034 16.236,77.117 25.093,156.836" style="fill:none;stroke:#044421;stroke-width:20.83px;"/><path d="M657.285,1669.97c17.462,69.844 21.254,67.6 53.324,131.742" style="fill:none;stroke:#044421;stroke-width:20.83px;"/><path d="M1534.49,1373.17c4.268,0.656 38.579,5.935 49.786,20.878c0.819,1.092 5.781,7.708 12.848,11.242" style="fill:none;stroke:#044421;stroke-width:20.83px;"/><path d="M1561.79,1421.35c14.261,21.393 19.861,15.042 38.544,33.725" style="fill:none;stroke:#044421;stroke-width:20.83px;"/><path d="M1614.79,1430.98c36.973,13.864 32.581,19.963 54.603,52.997" style="fill:none;stroke:#044421;stroke-width:20.83px;"/><path d="M1133.33,1765.77c63.24,31.619 53.003,42.964 95.356,85.318" style="fill:none;stroke:#044421;stroke-width:20.83px;"/><path d="M1181,1871.17c10.357,3.453 34.924,26.245 52.697,35.131" style="fill:none;stroke:#044421;stroke-width:20.83px;"/><path d="M1024.8,1208.61c4.121,10.303 29.406,73.515 73.517,117.626" style="fill:none;stroke:#044421;stroke-width:20.83px;"/><path d="M3044,2477.38c11.336,124.698 17.788,122.726 21.957,247.8" style="fill:none;stroke:#044421;stroke-width:20.83px;"/><path d="M3037.73,2725.18l-0,109.785" style="fill:none;stroke:#044421;stroke-width:20.83px;"/><circle cx="741.049" cy="2738.49" r="96.883" style="fill:none;stroke:#d9332e;stroke-width:83.33px;"/><circle cx="2677.6" cy="2982.89" r="65.815" style="fill:#044421;"/><g><path d="M1780.84,772.963l199.752,143.244" style="fill:none;stroke:#044421;stroke-width:83.33px;"/><path d="M1808.05,957.369l149.562,-220.606" style="fill:none;stroke:#044421;stroke-width:83.33px;"/></g><path d="M1228.37,2337.82c-202.831,-49.07 -452.586,-233.148 -540.391,-382.045c-118.893,-201.617 -243.26,-701.24 15.559,-833.86c206.211,-105.662 17.861,155.006 327.543,430.987c93.46,83.289 222.17,233.27 316.232,380.569" style="fill:none;stroke:#044421;stroke-width:62.5px;"/><path d="M1426.09,1810.81c-12.935,-24.475 -27.668,-47.1 -45.124,-66.619c-122.227,-136.683 -594.734,-561.209 -464.011,-657.003c130.723,-95.794 370.811,-8.609 547.533,91.024c0,0 175.086,120.047 272.799,337.697" style="fill:none;stroke:#044421;stroke-width:62.5px;"/><path d="M1737.28,1515.91c93.447,-49.861 192.2,-67.524 288.804,-30.828c260.672,99.016 -125.75,136.641 -127.028,624.438c-0.846,323.084 -155.927,1046.17 -394.537,946.987c-184.761,-76.799 -282.019,-437.987 -276.15,-718.693" style="fill:none;stroke:#d9332e;stroke-width:62.5px;"/><path d="M2584.81,2198.57c0,-0 49.823,388.194 -207.513,694.442c-265.308,315.735 -506.544,302.179 -537.763,263.35c-128.688,-160.049 141.38,-375.563 166.964,-589.743c25.585,-214.181 30.642,-961.135 221.923,-920.843c191.28,40.293 304.84,319.566 356.389,552.794Z" style="fill:none;stroke:#d9332e;stroke-width:62.5px;"/><path d="M1228.37,2337.82c1.711,-81.814 12.181,-156.791 31.799,-215.898c18.258,-55.007 48.2,-120.483 87.144,-188.451" style="fill:none;stroke:#d9332e;stroke-width:62.5px;"/><path d="M1347.31,1933.47c23.241,-40.562 49.688,-82.012 78.771,-122.654" style="fill:none;stroke:#d9332e;stroke-width:62.5px;"/><path d="M1426.09,1810.81c85.704,-119.769 194.3,-232.528 311.197,-294.901" style="fill:none;stroke:#d9332e;stroke-width:62.5px;"/><path d="M1324.91,2640.48c-10.377,-51.887 -12.417,-88.595 -12.848,-96.36" style="fill:none;stroke:#d9332e;stroke-width:20.83px;"/><path d="M1350.61,2739.41c-7.871,-23.613 -6.969,-23.241 -8.994,-47.538" style="fill:none;stroke:#d9332e;stroke-width:20.83px;"/><path d="M1367.31,2689.31c-11.563,-23.125 -13.812,-61.356 -14.132,-66.809" style="fill:none;stroke:#d9332e;stroke-width:20.83px;"/><path d="M2396.45,1962.85c6.222,6.221 35.128,35.128 62.735,90.337" style="fill:none;stroke:#d9332e;stroke-width:20.83px;"/><path d="M2484.28,2110.91c11.727,35.18 17.244,32.876 22.585,70.262" style="fill:none;stroke:#d9332e;stroke-width:20.83px;"/><path d="M2430.58,2062.97c4.115,19.432 12.375,15.101 16.689,35.468c0.715,3.379 4.65,21.958 15.422,40.324" style="fill:none;stroke:#d9332e;stroke-width:20.83px;"/></svg>