<?xml version="1.0" encoding="UTF-8" standalone="no"?><!DOCTYPE svg PUBLIC "-//W3C//DTD SVG 1.1//EN" "http://www.w3.org/Graphics/SVG/1.1/DTD/svg11.dtd"><svg width="100%" height="100%" viewBox="0 0 4500 4500" version="1.1" xmlns="http://www.w3.org/2000/svg" xmlns:xlink="http://www.w3.org/1999/xlink" xml:space="preserve" xmlns:serif="http://www.serif.com/" style="fill-rule:evenodd;clip-rule:evenodd;stroke-linecap:round;stroke-linejoin:round;stroke-miterlimit:1.5;"><rect id="Artboard2" x="0" y="0" width="4500" height="4500" style="fill:none;"/><path d="M2689.16,2743.76l-97.777,-3.021" style="fill:none;stroke:#044421;stroke-width:41.67px;"/><path d="M2719.91,2617.92l-55.579,-55.215" style="fill:none;stroke:#044421;stroke-width:41.67px;"/><path d="M2841.1,2504.11l5.466,83.63" style="fill:none;stroke:#044421;stroke-width:41.67px;"/><path d="M2925.56,3014.64l-107.383,93.397l-36.475,-424.216l415.061,94.939l-114.411,99.51l81.364,92.647l-156.134,137.12l-82.022,-93.397Z" style="fill:none;stroke:#d9332e;stroke-width:41.67px;"/><path d="M2096.46,1501.42c58.09,45.472 57.206,143.768 -1.974,219.369c-59.179,75.601 -154.386,100.062 -212.476,54.59c-58.09,-45.471 -57.205,-143.767 1.974,-219.368c59.179,-75.601 154.387,-100.062 212.476,-54.591Z" style="fill:#d9332e;"/><path d="M2217.53,2839.09c115.546,-32.205 239.141,48.513 275.828,180.14c36.687,131.627 -27.337,264.638 -142.884,296.843c-115.546,32.205 -239.141,-48.513 -275.828,-180.14c-36.687,-131.627 27.337,-264.638 142.884,-296.843Z" style="fill:#d9332e;"/><path d="M1343.41,1393.93c-0,0 583.722,857.198 591.88,1589.71" style="fill:none;stroke:#044421;stroke-width:41.67px;"/><path d="M2814.3,1662.9c0,0 -249.366,305.475 -370.933,554.841c-121.566,249.367 -420.805,498.343 -508.084,938.047c-87.278,439.704 -87.278,689.07 -87.278,689.07" style="fill:none;stroke:#044421;stroke-width:41.67px;"/><path d="M1935.29,2756.8c0,0 -517.436,-187.025 -586.012,-592.246c-68.575,-405.22 56.108,-504.967 -105.98,-679.523c-162.088,-174.557 -180.791,-286.772 -99.747,-311.709c81.044,-24.937 168.322,-37.405 243.132,-12.468c74.811,24.937 211.962,374.05 342.879,529.904c130.918,155.854 205.728,1066.04 205.728,1066.04Z" style="fill:none;stroke:#044421;stroke-width:62.5px;"/><path d="M1935.29,3155.79c0,-0 268.069,-511.202 455.094,-579.778c187.025,-68.575 448.86,-361.581 536.139,-804.207c87.278,-442.626 149.62,-781.519 24.936,-624.541c-124.683,156.979 -542.372,730.522 -654.587,967.42c-112.215,236.898 -361.582,504.968 -361.582,1041.11Z" style="fill:none;stroke:#044421;stroke-width:62.5px;"/><path d="M2072.44,2058.57c-0,-0 124.683,-480.031 93.512,-679.524c-31.171,-199.494 417.689,-1097.21 648.353,-1122.15c0,-0 -0,430.157 -87.278,623.416c-87.278,193.26 -317.942,673.29 -417.689,854.081c-99.747,180.791 -236.898,324.177 -236.898,324.177Z" style="fill:none;stroke:#044421;stroke-width:62.5px;"/><path d="M2577.41,734.008c0,-0 -286.772,517.436 -317.942,685.758c-31.171,168.322 -361.582,1003.31 -324.177,1736.02" style="fill:none;stroke:#044421;stroke-width:41.67px;"/><path d="M1382.51,4009.77c0,-0 93.637,-255.941 287.154,-230.971c193.516,24.969 224.729,293.396 405.76,131.091c181.031,-162.304 274.668,-218.486 387.033,-93.637c112.364,124.85 255.941,112.365 374.548,-43.697" style="fill:none;stroke:#d9332e;stroke-width:62.5px;"/><circle cx="1508.71" cy="3110.49" r="65.815" style="fill:#044421;"/><circle cx="3452.75" cy="1233.6" r="96.883" style="fill:none;stroke:#d9332e;stroke-width:83.33px;"/><g><path d="M696.771,1712.32l199.751,143.244" style="fill:none;stroke:#044421;stroke-width:83.33px;"/><path d="M723.981,1896.73l149.562,-220.606" style="fill:none;stroke:#044421;stroke-width:83.33px;"/></g><path d="M1407.74,2055.99c12.151,97.211 26.328,137.462 78.522,241.85" style="fill:none;stroke:#044421;stroke-width:20.83px;"/><path d="M1527.09,2213.03c8.739,69.914 93.754,175.576 122.495,194.737" style="fill:none;stroke:#044421;stroke-width:20.83px;"/><path d="M2730.06,444.703c3.141,37.691 3.141,167.597 3.141,182.173" style="fill:none;stroke:#044421;stroke-width:20.83px;"/><path d="M2708.15,727.636c-20.089,80.351 -28.222,77.673 -41.812,159.206" style="fill:none;stroke:#044421;stroke-width:20.83px;"/><path d="M2557.38,2324.79c27.402,-41.102 42.271,-29.574 113.858,-172.749" style="fill:none;stroke:#044421;stroke-width:20.83px;"/><path d="M2647.68,2285.53c29.447,-49.079 47.883,-104.388 51.04,-113.858" style="fill:none;stroke:#044421;stroke-width:20.83px;"/><path d="M2147.41,3132.39c12.971,25.943 55.207,47.382 76.386,64.325c22.019,17.615 83.181,24.886 84.428,26.133" style="fill:none;stroke:#ebebeb;stroke-width:20.83px;"/><path d="M2217.77,3261.05c25.707,3.673 92.468,22.113 194.987,-12.061" style="fill:none;stroke:#ebebeb;stroke-width:20.83px;"/><path d="M2187.61,2917.3c6.478,-19.433 68.87,-50.601 60.306,-12.061c-1.707,7.679 -31.642,27.622 -32.163,28.143c-1.691,1.69 -76.435,34.223 -20.102,-22.112" style="fill:none;stroke:#ebebeb;stroke-width:20.83px;"/><path d="M2075.04,1562.44c-17.633,-5.878 -27.735,-34.376 -16.081,-40.203c21.927,-10.964 74.388,34.674 14.071,42.214" style="fill:none;stroke:#ebebeb;stroke-width:20.83px;"/><path d="M1892.12,1626.77c-15.062,30.124 6.467,88.885 24.122,106.54" style="fill:none;stroke:#ebebeb;stroke-width:20.83px;"/><path d="M1928.3,1689.09c19.24,38.481 29.257,31.84 50.255,34.173" style="fill:none;stroke:#ebebeb;stroke-width:20.83px;"/></svg>