<?xml version="1.0" encoding="UTF-8" standalone="no"?><!DOCTYPE svg PUBLIC "-//W3C//DTD SVG 1.1//EN" "http://www.w3.org/Graphics/SVG/1.1/DTD/svg11.dtd"><svg width="100%" height="100%" viewBox="0 0 4500 4500" version="1.1" xmlns="http://www.w3.org/2000/svg" xmlns:xlink="http://www.w3.org/1999/xlink" xml:space="preserve" xmlns:serif="http://www.serif.com/" style="fill-rule:evenodd;clip-rule:evenodd;stroke-linecap:round;stroke-linejoin:round;stroke-miterlimit:1.5;"><rect id="Artboard8" x="0" y="0" width="4500" height="4500" style="fill:none;"/><path d="M3304.93,2392.69l52.827,-291.814l221.866,180.056l-274.693,111.758Z" style="fill:none;stroke:#044421;stroke-width:41.67px;"/><path d="M3301.5,2397.91l31.453,-173.744l132.097,107.204l-163.55,66.54Z" style="fill:#044421;"/><path d="M3864.97,1928.25l-287.866,352.808l-219.558,-179.144l282.733,-346.516" style="fill:none;stroke:#81a190;stroke-width:41.67px;"/><path d="M1665.12,999.647c321.996,-121.543 609.833,-205.198 686.081,-151.813c280.318,196.264 995.048,2566.1 995.048,2566.1c-0,0 -453.423,75.899 -671.114,144.897c-280.125,88.786 -1009.63,387.819 -1009.63,387.819c-0,0 -206.481,-829.507 -286.901,-1247.7c-219.691,-1142.41 -796.265,-1230.28 -796.265,-1230.28c0,-0 171.779,-82.622 408.865,-188.366" style="fill:none;stroke:#044421;stroke-width:62.5px;stroke-linecap:butt;"/><path d="M1511.04,1610.75l81.072,255.787l-266.946,84.609l-81.072,-255.787l266.946,-84.609Z" style="fill:none;stroke:#d9332e;stroke-width:41.67px;"/><path d="M1685.33,2161.32l81.072,255.787l-266.946,84.609l-81.072,-255.787l266.946,-84.609Z" style="fill:none;stroke:#d9332e;stroke-width:41.67px;"/><path d="M1859.62,2711.88l81.072,255.787l-266.946,84.609l-81.072,-255.787l266.946,-84.609Z" style="fill:none;stroke:#d9332e;stroke-width:41.67px;"/><path d="M2033.91,3262.45l81.072,255.787l-266.947,84.609l-81.072,-255.787l266.947,-84.609Z" style="fill:none;stroke:#d9332e;stroke-width:41.67px;"/><circle cx="2880.16" cy="1266.33" r="73.033" style="fill:none;stroke:#044421;stroke-width:62.5px;"/><circle cx="633.163" cy="2157.3" r="73.033" style="fill:#044421;"/><circle cx="3488.17" cy="2931.71" r="36.986" style="fill:#d9332e;"/><path d="M1262.17,3361.8l331.019,-72.658" style="fill:none;stroke:#d9332e;stroke-width:62.5px;"/><g><path d="M2014,564.749l120.042,114.77" style="fill:none;stroke:#d9332e;stroke-width:62.5px;"/><path d="M2014.72,690.692l120.974,-133.394" style="fill:none;stroke:#d9332e;stroke-width:62.5px;"/></g><g><path d="M619.801,2910.69l107.189,40.309" style="fill:none;stroke:#d9332e;stroke-width:62.5px;"/><path d="M654.332,2990.38l40.631,-117.336" style="fill:none;stroke:#d9332e;stroke-width:62.5px;"/></g><path d="M2788.52,3677.88c0,-0 -8.166,-265.899 115.4,-271.667c123.567,-5.768 210.535,252.851 279.055,65.197c68.52,-187.654 111.002,-257.457 210.73,-152.48c99.727,104.977 183.543,70.256 215.828,-101.503" style="fill:none;stroke:#d9332e;stroke-width:62.5px;"/><path d="M991.203,1280.3l-60.383,-151.307l677.952,-270.552l56.351,141.204" style="fill:none;stroke:#d9332e;stroke-width:41.67px;"/><path d="M1665.12,999.647l57.089,143.054l-677.952,270.553l-53.057,-132.952" style="fill:none;stroke:#d9332e;stroke-width:41.67px;"/><path d="M1353.95,1713.74l100.21,109.049c-0,-0 -18.328,-317.597 85.942,-462.355" style="fill:none;stroke:#044421;stroke-width:62.5px;"/><path d="M1513.94,2268.91l100.209,109.049c0,-0 -18.328,-317.596 85.943,-462.355" style="fill:none;stroke:#044421;stroke-width:62.5px;"/><path d="M1700.09,2824.99l100.209,109.048c-0,0 -18.328,-317.596 85.943,-462.354" style="fill:none;stroke:#044421;stroke-width:62.5px;"/><path d="M3652.97,1728.26l34.875,-43.111c39.8,-49.199 112.056,-56.83 161.256,-17.029l53.297,43.115c49.199,39.8 56.83,112.057 17.029,161.256l-34.874,43.11" style="fill:none;stroke:#d9332e;stroke-width:41.67px;"/><path d="M3658.38,1733.21l219.557,179.143" style="fill:none;stroke:#d9332e;stroke-width:41.67px;"/><path d="M1723.7,1693.4c89.578,-159.249 66.834,-179.925 100.643,-185.56c77.225,-12.871 61.12,236.763 59.756,257.897c91.511,-282.851 131.839,-272.241 150.964,-257.897c33.484,25.113 17.43,186.148 22.016,179.27c68.171,-102.254 89.8,-47.88 97.497,-44.031c20.577,10.288 47.8,-82.423 66.047,-9.435c7.241,28.965 82.094,-52.526 122.658,-66.047" style="fill:none;stroke:#81a190;stroke-width:41.67px;"/><path d="M1916.39,2182.97c35.832,214.984 165.686,-87.929 179.27,-47.177c30.144,90.433 51.63,-13.016 69.192,-18.87c20.958,-6.986 19.049,73.775 62.902,40.886c18.026,-13.519 38.674,-68.545 87.629,-152.468c2.823,20.225 -2.39,41.036 0.433,61.261c6.225,44.598 24.372,5.379 67.808,-6.416c65.452,9.149 54.992,-21.961 98.881,-43.906" style="fill:none;stroke:#81a190;stroke-width:41.67px;"/><path d="M2203.12,3358c37.146,37.147 84.483,-132.031 147.426,-6.142c21.27,42.541 116.824,-177.692 141.283,-79.856c21.422,85.69 55.956,-76.672 147.426,-61.427c120.724,20.12 83.406,-241.201 122.854,-122.855" style="fill:none;stroke:#81a190;stroke-width:41.67px;"/><path d="M1994.17,2850.79c40.976,-106.537 215.316,-292.758 232.736,-31.451c71.506,-222.462 133.876,-175.705 141.529,-160.399c11.489,22.979 8.662,22.44 9.435,47.177c3.027,96.865 -17.948,91.984 -25.161,128.948c20.553,-55.613 112.582,-351.944 191.85,-292.493c28.889,21.667 13.114,94.053 62.902,66.047c73.195,-41.172 136.006,-154.232 144.674,-169.834l-0,22.015" style="fill:none;stroke:#81a190;stroke-width:41.67px;"/><path d="M3646.16,2047.39c3.38,-5.069 89.311,-97.114 94.604,-100.643" style="fill:none;stroke:#81a190;stroke-width:20.83px;"/><path d="M3549.84,2077.79c58.427,-58.423 70.689,-93.232 95.006,-117.55" style="fill:none;stroke:#81a190;stroke-width:20.83px;"/><path d="M1072.34,1306.18c37.66,-10.76 31,-27.109 459.181,-169.834" style="fill:none;stroke:#d9332e;stroke-width:20.83px;"/></svg>