<?xml version="1.0" encoding="UTF-8" standalone="no"?><!DOCTYPE svg PUBLIC "-//W3C//DTD SVG 1.1//EN" "http://www.w3.org/Graphics/SVG/1.1/DTD/svg11.dtd"><svg width="100%" height="100%" viewBox="0 0 4500 4500" version="1.1" xmlns="http://www.w3.org/2000/svg" xmlns:xlink="http://www.w3.org/1999/xlink" xml:space="preserve" xmlns:serif="http://www.serif.com/" style="fill-rule:evenodd;clip-rule:evenodd;stroke-linecap:round;stroke-linejoin:round;stroke-miterlimit:1.5;"><rect id="Artboard15" x="0" y="0" width="4500" height="4500" style="fill:none;"/><path d="M3323.31,2851.55c78.055,517.619 146.662,985.772 146.662,985.772l-2117.53,350.294c0,-0 -117.842,-522.224 -166.478,-1082.86c-39.363,-453.743 -27.996,-931.778 -63.434,-1152.45c-96.698,-602.132 -649.907,-594.72 -649.907,-594.72c-0,-0 969.003,-428.773 1376.22,-546.57c346.03,-100.097 1067.08,-160.211 1067.08,-160.211c0,0 161.353,669.162 220.297,1008.18c17.937,103.165 41.499,248.447 67.824,415.591" style="fill:none;stroke:#000;stroke-width:62.5px;"/><path d="M2315.24,3388.41l36.965,-487.09l450.943,463.228l-487.908,23.862Z" style="fill:none;stroke:#000;stroke-width:62.5px;"/><path d="M2315.24,3388.41l15.212,-200.448l185.573,190.628l-200.785,9.82Z"/><path d="M3392.56,508.33l55.23,141.57l149.256,52.386l-149.256,52.386l-55.23,141.57l-55.23,-141.57l-149.257,-52.386l149.257,-52.386l55.23,-141.57Z" style="fill:#d9332e;"/><path d="M3204.06,2074.58l525.45,-508.828l445.998,460.568l-852.192,825.234" style="fill:none;stroke:#d9332e;stroke-width:62.5px;"/><path d="M3323.31,2851.55l-526.112,509.468l-445.998,-460.568l852.854,-825.874" style="fill:none;stroke:#d9332e;stroke-width:62.5px;"/><circle cx="797.696" cy="2692.21" r="124.137" style="fill:none;stroke:#d9332e;stroke-width:62.5px;"/><circle cx="1667.47" cy="436.294" r="72.035" style="fill:none;stroke:#d9332e;stroke-width:62.5px;"/><g><path d="M3729.49,985.222l172.216,75.74" style="fill:none;stroke:#000;stroke-width:83.33px;"/><path d="M3778.99,1119.03l77.178,-188.832" style="fill:none;stroke:#000;stroke-width:83.33px;"/></g><path d="M2944.14,3653.1c-0,0 68.591,-252.962 234.931,-236.166c166.339,16.797 204.902,277.064 352.27,111.917c147.367,-165.147 224.824,-223.518 326.306,-106.27c101.481,117.248 223.518,99.501 317.862,-57.137" style="fill:none;stroke:#d9332e;stroke-width:62.5px;"/><path d="M1415.13,1549.14c141.215,753.138 424.697,-92.731 301.997,-154.08c-94.72,-47.359 -154.053,193.541 -86.285,234.202c147.305,88.382 315.697,-28.713 295.835,-326.65c-1.054,30.543 -12.135,351.88 117.1,363.629c151.191,13.745 231.821,-255.026 240.365,-283.507c32.349,388.188 195.826,10.928 197.223,12.326c10.894,10.894 21.44,108.793 117.101,67.795c8.319,-3.565 3.139,-7.734 98.612,-55.468" style="fill:none;stroke:#81a190;stroke-width:41.67px;"/><path d="M1482.93,2140.81c66.228,-66.228 76.695,-34.243 80.122,-30.816c24.421,24.421 176.419,100.941 292.618,-112.277c113.633,361.936 230.845,-20.027 286.724,-47.966c1.607,-0.804 44.717,90.087 104.774,-0c37.801,-56.702 83.426,27.513 160.244,-49.306c58.713,-58.714 95.557,-45.46 160.243,-61.632" style="fill:none;stroke:#81a190;stroke-width:41.67px;"/><path d="M1643.92,2427.02c-11.711,46.84 138.303,334.783 319.501,-27.612c2.876,11.504 11.614,209.35 142,35.5c49.173,-65.564 82.494,44.026 145.945,-7.888c90.166,-73.773 83.918,-172.471 165.667,-90.723c41.769,41.77 124.973,-135.361 138.056,-122.278c26.161,26.162 37.436,57.565 86.778,-0c3.563,-4.157 46.928,-43.187 71,-55.222" style="fill:none;stroke:#81a190;stroke-width:41.67px;"/><path d="M1651.81,2931.91c41.867,111.644 191.063,96.262 248.5,-47.334c17.459,-43.646 33.61,71.223 94.667,27.611c38.224,-27.302 27.804,-37.713 67.056,-63.111c31.044,-20.088 27.957,4.291 67.056,43.389c61.554,-16.787 62.863,-17.378 98.611,-71c1.97,-2.956 90.658,-47.301 98.611,-51.278" style="fill:none;stroke:#81a190;stroke-width:41.67px;"/><path d="M1825.37,3322.41c22.089,198.809 473.76,78.61 339.223,-82.834c-25.841,12.92 -63.349,-12.281 -118.334,189.334c-51.894,190.282 139.704,90.37 153.834,19.722c1.136,-5.68 2.818,-14.089 35.5,-63.111" style="fill:none;stroke:#81a190;stroke-width:41.67px;"/><path d="M3104.54,2520.57c-25.536,51.072 517.881,-399.634 537.432,-428.959" style="fill:none;stroke:#d9332e;stroke-width:20.83px;"/><path d="M3213.02,2574.81c268.41,-201.306 522.275,-455.894 586.738,-488.126" style="fill:none;stroke:#d9332e;stroke-width:20.83px;"/><path d="M1378.44,3602.82c-5.832,192.463 5.751,190.471 43.39,378.668c5.258,26.293 32.145,80.069 35.5,86.778" style="fill:none;stroke:#044421;stroke-width:20.83px;"/><path d="M1465.85,3887.8c-0,-106.169 -11.154,42.351 52.508,127.232c1.207,1.609 22.188,40.364 30.294,48.47" style="fill:none;stroke:#044421;stroke-width:20.83px;"/><path d="M2774.83,827.998c51.778,103.554 66.935,98.124 153.834,445.724" style="fill:none;stroke:#044421;stroke-width:20.83px;"/><path d="M2928.66,1050.86c8.989,134.845 28.56,136.432 98.611,368.806" style="fill:none;stroke:#044421;stroke-width:20.83px;"/></svg>