<?xml version="1.0" encoding="UTF-8" standalone="no"?><!DOCTYPE svg PUBLIC "-//W3C//DTD SVG 1.1//EN" "http://www.w3.org/Graphics/SVG/1.1/DTD/svg11.dtd"><svg width="100%" height="100%" viewBox="0 0 4500 4500" version="1.1" xmlns="http://www.w3.org/2000/svg" xmlns:xlink="http://www.w3.org/1999/xlink" xml:space="preserve" xmlns:serif="http://www.serif.com/" style="fill-rule:evenodd;clip-rule:evenodd;stroke-linecap:round;stroke-linejoin:round;stroke-miterlimit:1.5;"><rect id="Artboard7" x="0" y="0" width="4500" height="4500" style="fill:none;"/><path d="M1088.69,1674.79l759.1,144.142" style="fill:none;stroke:#d9332e;stroke-width:62.5px;"/><path d="M2689.53,1978.76l896.595,170.25" style="fill:none;stroke:#d9332e;stroke-width:62.5px;"/><path d="M401.142,2951.65l355.571,7.798" style="fill:none;stroke:#d9332e;stroke-width:83.33px;"/><circle cx="3972.73" cy="2366.29" r="81.23" style="fill:none;stroke:#044421;stroke-width:62.5px;"/><circle cx="1245.34" cy="955.91" r="81.23"/><path d="M1786.56,2945.68l-570.483,-116.515c-200.614,-40.973 -330.222,-237.112 -289.249,-437.726l148.477,-726.976c40.974,-200.614 237.112,-330.222 437.727,-289.249l1793.64,366.332c200.614,40.973 330.222,237.112 289.249,437.726l-148.477,726.975c-40.974,200.615 -237.112,330.223 -437.726,289.25l-693.564,-141.653" style="fill:none;stroke:#044421;stroke-width:62.5px;"/><path d="M1703.09,1237.09l-34.137,167.792l-265.469,-54.01l34.138,-167.792l265.468,54.01Z" style="fill:none;stroke:#044421;stroke-width:62.5px;"/><path d="M3059.22,1691.25l-1343.52,-273.341l267.215,-341.27l963.674,196.062l112.628,418.549Z" style="fill:none;stroke:#d9332e;stroke-width:62.5px;"/><path d="M1786.56,2945.68c-169.894,-121.052 -280.775,-319.666 -280.775,-543.973c0,-250.247 138.01,-468.514 342.004,-582.778" style="fill:none;stroke:#044421;stroke-width:62.5px;"/><path d="M1835.93,2887.05c-151.194,-107.728 -249.871,-284.481 -249.871,-484.099c0,-222.703 122.819,-416.946 304.36,-518.633" style="fill:none;stroke:#d9332e;stroke-width:20.83px;"/><path d="M1847.79,1818.93c96.313,-53.948 207.336,-84.712 325.486,-84.712c207.94,-0 393.8,95.29 516.256,244.547" style="fill:none;stroke:#044421;stroke-width:62.5px;"/><path d="M1890.42,1884.32c85.712,-48.01 184.515,-75.388 289.661,-75.388c185.052,0 350.455,84.802 459.432,217.63" style="fill:none;stroke:#d9332e;stroke-width:20.83px;"/><path d="M2689.53,1978.76c94.494,115.175 151.235,262.485 151.235,422.943c-0,319.365 -224.773,586.645 -524.616,652.137" style="fill:none;stroke:#044421;stroke-width:62.5px;"/><path d="M2639.52,2026.56c84.094,102.498 134.589,233.594 134.589,376.391c-0,284.213 -200.033,522.074 -466.872,580.357" style="fill:none;stroke:#d9332e;stroke-width:20.83px;"/><path d="M2316.15,3053.84c-46.036,10.055 -93.841,15.353 -142.875,15.353c-144.09,0 -277.578,-45.755 -386.715,-123.517" style="fill:none;stroke:#044421;stroke-width:62.5px;"/><path d="M2307.23,2983.31c-40.969,8.949 -83.513,13.664 -127.149,13.664c-128.231,-0 -247.026,-40.719 -344.15,-109.922" style="fill:none;stroke:#d9332e;stroke-width:20.83px;"/><g><path d="M3440.43,1464.74l145.576,121.642" style="fill:none;stroke:#044421;stroke-width:83.33px;"/><path d="M3450.85,1608.23l127.693,-161.267" style="fill:none;stroke:#044421;stroke-width:83.33px;"/></g><path d="M1994.04,2469.08c19.601,-16.023 158.473,-85.974 172.474,-93.026c52.008,-26.197 49.902,-29.498 105.476,-46.98" style="fill:none;stroke:#d9332e;stroke-width:20.83px;"/><path d="M1950.62,2551.08c414.924,-184.808 407.605,-199.61 444.479,-213.639" style="fill:none;stroke:#d9332e;stroke-width:20.83px;"/><path d="M3388.92,2329.07c-12.188,158.443 -20.229,155.402 -35.382,314.509" style="fill:none;stroke:#044421;stroke-width:20.83px;"/><path d="M3432.16,2490.26c-13.914,208.709 -42.815,203.637 -55.039,338.097" style="fill:none;stroke:#044421;stroke-width:20.83px;"/><path d="M1942.6,1318.2c30.103,-41.392 105.78,-117.391 114.009,-129.735" style="fill:none;stroke:#d9332e;stroke-width:20.83px;"/><path d="M1966.19,1388.97c15.804,-31.61 35.234,-58.823 82.558,-106.147" style="fill:none;stroke:#d9332e;stroke-width:20.83px;"/><path d="M1313.85,1870.38c-18.725,56.174 -172.774,518.33 -181.826,717.473" style="fill:none;stroke:#044421;stroke-width:20.83px;"/></svg>