<?xml version="1.0" encoding="UTF-8" standalone="no"?><!DOCTYPE svg PUBLIC "-//W3C//DTD SVG 1.1//EN" "http://www.w3.org/Graphics/SVG/1.1/DTD/svg11.dtd"><svg width="100%" height="100%" viewBox="0 0 4500 4500" version="1.1" xmlns="http://www.w3.org/2000/svg" xmlns:xlink="http://www.w3.org/1999/xlink" xml:space="preserve" xmlns:serif="http://www.serif.com/" style="fill-rule:evenodd;clip-rule:evenodd;stroke-linecap:round;stroke-linejoin:round;stroke-miterlimit:1.5;"><rect id="Artboard10" x="0" y="0" width="4500" height="4500" style="fill:none;"/><path d="M2634,2638.4l-374.459,36.215l-136.686,-1413.35l1390.43,-134.47l136.687,1413.34l-790.568,76.457" style="fill:none;stroke:#81a190;stroke-width:41.67px;"/><path d="M939.206,2832.91c196.241,-60.913 497.41,-140.845 717.348,-137.409c170.018,2.657 306.625,9.268 411.951,12.901" style="fill:none;stroke:#044421;stroke-width:20.83px;"/><path d="M968.39,2869.89c195.588,-58.957 473.148,-128.998 679.324,-125.776c144.064,2.251 264.14,7.342 361.522,11.053" style="fill:none;stroke:#044421;stroke-width:20.83px;"/><path d="M1232.7,3204.84c87.149,-18.698 175.78,-33.675 258.42,-40.821" style="fill:none;stroke:#044421;stroke-width:20.83px;"/><path d="M1262.02,3242.01c55.444,-11.209 111.096,-20.707 165.05,-27.447" style="fill:none;stroke:#044421;stroke-width:20.83px;"/><path d="M739.466,2581.7c-0,0 563.512,-209.936 917.088,-204.411c144.696,2.261 265.194,7.386 362.803,11.102" style="fill:none;stroke:#044421;stroke-width:62.5px;stroke-linecap:butt;"/><path d="M2470.44,1778.97c0,-0 105.932,-11.269 211.864,121.709" style="fill:none;stroke:#044421;stroke-width:29.17px;"/><path d="M3332.59,2018.05c81.134,20.836 126.657,116.986 101.594,214.578c-25.063,97.593 -111.282,159.909 -192.416,139.072c-81.135,-20.836 -126.658,-116.985 -101.595,-214.578c25.063,-97.592 111.282,-159.908 192.417,-139.072Z" style="fill:#d9332e;"/><path d="M2815.26,1342.77c56.452,14.498 88.538,79.791 71.608,145.715c-16.93,65.925 -76.507,107.678 -132.959,93.18c-56.452,-14.497 -88.539,-79.79 -71.608,-145.715c16.93,-65.925 76.507,-107.677 132.959,-93.18Z" style="fill:#d9332e;"/><path d="M3094.76,1675.3c-0,0 -52.824,38.316 -104.17,103.678" style="fill:none;stroke:#044421;stroke-width:29.17px;"/><path d="M2886.42,1778.97c-0,-0 -39.301,236.656 -0,369.634" style="fill:none;stroke:#044421;stroke-width:29.17px;"/><path d="M3094.76,1884.9c-0,-0 -173.263,112.693 -208.34,263.702" style="fill:none;stroke:#044421;stroke-width:29.17px;"/><path d="M2403.76,1544.57c0,-0 379.104,357.801 453.912,777.583" style="fill:none;stroke:#044421;stroke-width:29.17px;"/><path d="M2867.68,2343.05c0,0 -135.232,-346.531 -16.904,-614.178c118.328,-267.646 278.916,-383.157 366.253,-411.33c87.337,-28.174 0,81.702 5.635,140.866c5.635,59.164 -78.885,188.762 -47.895,315.541c30.991,126.78 -143.684,464.86 -307.089,569.101Z" style="fill:none;stroke:#044421;stroke-width:62.5px;"/><path d="M2802.24,2089.32c0,0 -216.29,18.176 -359.974,-261.289c-143.684,-279.464 -146.501,-352.715 -149.319,-397.792c-2.817,-45.077 225.387,138.049 284.551,169.04c59.164,30.99 215.646,365.904 224.742,490.041Z" style="fill:none;stroke:#044421;stroke-width:62.5px;"/><path d="M2859.41,2616.6c12.563,32.634 21.614,63.859 27.008,92c-0,0 -96.949,79.829 -252.415,-70.201" style="fill:none;stroke:#044421;stroke-width:62.5px;"/><path d="M2634,2638.4c-40.455,-39.04 -84.872,-93.645 -132.575,-169.272c-0,0 -219.752,-290.185 -0,-222.569c179.104,55.109 302.627,226.249 357.982,370.042" style="fill:none;stroke:#044421;stroke-width:62.5px;"/><path d="M3157.87,1423.13c0,-0 -410.482,644.285 -271.448,1285.46" style="fill:none;stroke:#044421;stroke-width:29.17px;"/><path d="M2516.27,2343.05c0,0 183.307,38.878 480.852,529.093" style="fill:none;stroke:#044421;stroke-width:29.17px;"/><path d="M1944.06,1609.85l-50.856,-525.855l1805.99,-174.66l200.579,2073.99l-1658.42,160.388" style="fill:none;stroke:#044421;stroke-width:62.5px;"/><path d="M2241.35,3143.72l-811.525,640.377l-1245.33,-1578.16l1374.23,-1084.41l385.341,488.328" style="fill:none;stroke:#044421;stroke-width:62.5px;"/><path d="M939.206,2832.91l-475.839,-603.013l1058.02,-834.888l458.033,580.448" style="fill:none;stroke:#81a190;stroke-width:41.67px;stroke-linecap:butt;"/><path d="M2068.51,2708.4l-59.269,46.769" style="fill:none;stroke:#81a190;stroke-width:41.67px;stroke-linecap:butt;"/><path d="M2009.24,2755.17l-518.119,408.849" style="fill:none;stroke:#81a190;stroke-width:41.67px;"/><path d="M1491.12,3164.02l-64.044,50.537" style="fill:none;stroke:#81a190;stroke-width:41.67px;"/><path d="M1427.07,3214.56l-115.061,90.796l-49.989,-63.349" style="fill:none;stroke:#81a190;stroke-width:41.67px;"/><path d="M1262.02,3242.01l-29.326,-37.163" style="fill:none;stroke:#81a190;stroke-width:41.67px;"/><path d="M1232.7,3204.84l-264.307,-334.947" style="fill:none;stroke:#81a190;stroke-width:41.67px;"/><path d="M968.39,2869.89l-29.184,-36.984" style="fill:none;stroke:#81a190;stroke-width:41.67px;"/><path d="M4075.82,2092.28l120.307,-4.472" style="fill:none;stroke:#044421;stroke-width:62.5px;"/><path d="M1162.43,850.818l331.845,-12.337" style="fill:none;stroke:#d9332e;stroke-width:62.5px;"/><circle cx="1689.95" cy="1957.26" r="52.749" style="fill:none;stroke:#d9332e;stroke-width:62.5px;"/><circle cx="3546.23" cy="2662.64" r="29.767" style="fill:none;stroke:#044421;stroke-width:62.5px;"/><g><path d="M3917.93,1060.81l86.277,87.935" style="fill:none;stroke:#044421;stroke-width:62.5px;"/><path d="M3915.47,1154.19l92.852,-96.029" style="fill:none;stroke:#044421;stroke-width:62.5px;"/></g><path d="M3621.18,3092.87c0,-0 33.743,-189.153 121.938,-174.867c88.195,14.286 111.232,210.004 187.55,87.551c76.317,-122.453 116.717,-165.477 171.605,-76.458c54.888,89.019 119.289,76.933 167.633,-39.669" style="fill:none;stroke:#d9332e;stroke-width:62.5px;"/><path d="M2241.35,3143.72l-147.564,14.271l-74.429,-769.601" style="fill:none;stroke:#044421;stroke-width:62.5px;"/><path d="M2019.36,2388.39l-39.935,-412.928" style="fill:none;stroke:#044421;stroke-width:62.5px;"/><path d="M1979.42,1975.46l-35.359,-365.61" style="fill:none;stroke:#044421;stroke-width:62.5px;"/><path d="M3213.56,2129.72c-30.391,15.195 -19.03,151.658 25.764,196.454" style="fill:none;stroke:#ebebeb;stroke-width:20.83px;"/><path d="M3158.81,2234.38c3.388,23.716 5.419,22.698 12.883,45.088" style="fill:none;stroke:#ebebeb;stroke-width:20.83px;"/><path d="M3310.97,2072.76c1.876,-5.626 27.241,-0.032 27.702,0.66c11.058,16.587 4.518,32.066 -18.468,24.404c-3.191,-1.064 -18.614,-18.761 -1.319,-23.085" style="fill:none;stroke:#ebebeb;stroke-width:20.83px;"/><path d="M2726.06,1421.64c-3.442,3.442 -23.308,77.173 10.305,110.787" style="fill:none;stroke:#ebebeb;stroke-width:20.83px;"/><path d="M2750.54,1488.63c4.297,21.487 17.613,21.478 33.493,37.358" style="fill:none;stroke:#ebebeb;stroke-width:20.83px;"/><path d="M1677.57,2528.69c48.175,-48.173 89.906,-12.497 119.429,-2.348c69.197,-38.591 73.29,-23.991 110.035,-11.742" style="fill:none;stroke:#044421;stroke-width:20.83px;"/><path d="M1776.2,2587.06c63.147,-5.741 66.436,-30.182 86.553,-10.065c10.215,10.215 10.427,16.837 22.141,8.052c32.782,-24.587 33.831,-21.614 74.475,-24.154" style="fill:none;stroke:#044421;stroke-width:20.83px;"/><path d="M1130.07,2957.42c17.911,-80.599 117.025,-30.472 126.809,-40.256c23.411,-23.41 25.837,-26.805 112.719,-18.116" style="fill:none;stroke:#044421;stroke-width:20.83px;"/><path d="M1192.47,2961.45c36.616,-7.323 35.973,-0.794 72.463,2.013c8.227,0.633 6.633,-6.508 102.655,-10.064" style="fill:none;stroke:#044421;stroke-width:20.83px;"/></svg>