<?xml version="1.0" encoding="UTF-8" standalone="no"?><!DOCTYPE svg PUBLIC "-//W3C//DTD SVG 1.1//EN" "http://www.w3.org/Graphics/SVG/1.1/DTD/svg11.dtd"><svg width="100%" height="100%" viewBox="0 0 4500 4500" version="1.1" xmlns="http://www.w3.org/2000/svg" xmlns:xlink="http://www.w3.org/1999/xlink" xml:space="preserve" xmlns:serif="http://www.serif.com/" style="fill-rule:evenodd;clip-rule:evenodd;stroke-linecap:round;stroke-linejoin:round;stroke-miterlimit:1.5;"><rect id="Artboard5" x="0" y="0" width="4500" height="4500" style="fill:none;"/><path d="M1674.29,1776.26c-0.205,-1.183 -0.411,-2.363 -0.617,-3.541" style="fill:none;stroke:#044421;stroke-width:62.5px;"/><path d="M3101.82,1772.72c0.187,1.18 0.372,2.36 0.557,3.541" style="fill:none;stroke:#044421;stroke-width:62.5px;"/><path d="M2543.22,2755.02l1199.47,733.317" style="fill:none;stroke:#044421;stroke-width:62.5px;"/><circle cx="1106.05" cy="4115.54" r="107.24" style="fill:none;stroke:#d9332e;stroke-width:62.5px;"/><circle cx="3366.05" cy="3963.15" r="64.11"/><g><path d="M3530.04,1057.02l184.114,145.114" style="fill:none;stroke:#d9332e;stroke-width:62.5px;"/><path d="M3547.98,1233.88l152.036,-203.71" style="fill:none;stroke:#d9332e;stroke-width:62.5px;"/></g><path d="M3102.38,1776.26l640.313,-0l0,1712.08l-2847.32,-0l-0,-1712.08l778.925,-0" style="fill:none;stroke:#044421;stroke-width:62.5px;"/><path d="M2124.06,2749.53l-1228.69,738.804" style="fill:none;stroke:#044421;stroke-width:62.5px;"/><path d="M1678.98,1047.25l637.331,-594.83l446.635,416.85" style="fill:none;stroke:#044421;stroke-width:62.5px;"/><path d="M2898.74,996.012l832.205,776.708l-629.129,-0" style="fill:none;stroke:#044421;stroke-width:62.5px;"/><path d="M1673.68,1772.72l-772,-0l559.923,-522.583" style="fill:none;stroke:#044421;stroke-width:62.5px;"/><path d="M2294.06,2602.69c18.144,111.708 17.927,290.7 -51.793,280.118c-46.16,-7.006 -90.288,-67.01 -118.21,-133.279" style="fill:none;stroke:#d9332e;stroke-width:62.5px;"/><path d="M2543.22,2755.02c-3.05,9.149 -6.662,18.35 -10.91,27.541c-54.575,118.067 -128.173,132.615 -140.654,123.054c-51.447,-39.412 12.551,-126.911 3.162,-195.012c-1.733,-12.568 -5.123,-30.683 -9.117,-51.885" style="fill:none;stroke:#d9332e;stroke-width:62.5px;"/><path d="M577.059,2846.08c-0,0 86.03,-235.147 263.824,-212.206c177.795,22.941 206.472,269.56 372.795,120.442" style="fill:none;stroke:#d9332e;stroke-width:62.5px;"/><path d="M1813.62,1397.57c11.44,-5.72 76.958,-38.479 119.164,-106.584c2.011,19.702 -3.821,87.86 41.236,81.423c27.168,-3.881 53.952,-97.626 56.612,-106.933c48.559,89.024 52.367,112.566 100.643,103.788c36.293,-6.598 61.922,-93.486 64.671,-102.805c71.536,127.449 134.134,58.334 165.999,-84.283c69.088,103.632 166.828,102.884 245.607,-54.674c54.704,-6.635 53.849,-7.576 102.421,-31.861" style="fill:none;stroke:#044421;stroke-opacity:0.5;stroke-width:41.67px;"/><path d="M1870.23,1655.46c150.443,56.417 213.529,-124.98 235.882,-110.078c28.483,18.989 46.561,55.539 91.208,-18.871c30.429,-50.715 85.508,36.953 150.965,-50.321c20.231,-26.976 76.343,58.153 179.27,-28.306c28.694,-24.103 64.956,-83.891 88.063,-72.337" style="fill:none;stroke:#044421;stroke-opacity:0.5;stroke-width:41.67px;"/><path d="M1876.52,1919.65c-20.161,-40.322 169.221,-180.501 229.592,-59.757c12.528,25.058 68.705,-73.666 122.659,-100.643c55.151,-27.575 36.428,22.917 37.741,31.451c69.762,-79.275 120.761,-183.69 188.706,-81.772c68.639,102.96 144.428,-54.915 217.011,-91.208" style="fill:none;stroke:#044421;stroke-opacity:0.5;stroke-width:41.67px;"/><path d="M2018.05,2171.26c69.713,-153.368 234.027,-128.276 292.494,-50.321c91.508,122.008 222.403,-197.886 292.494,-147.82c67.441,48.172 75.352,120.245 119.514,50.322c43.879,-69.475 29.477,-92.279 110.078,-106.934c13.422,-2.44 37.001,-20.72 69.193,-31.451" style="fill:none;stroke:#044421;stroke-opacity:0.5;stroke-width:41.67px;"/><path d="M3540,2533.63c2.675,8.027 12.358,92.576 35.225,145.932c8.129,18.968 14.395,87.899 15.096,95.611" style="fill:none;stroke:#044421;stroke-width:20.83px;"/><path d="M3640.64,2664.46c11.83,153.795 12.58,152.972 12.58,306.961" style="fill:none;stroke:#044421;stroke-width:20.83px;"/><path d="M3269.6,1470.19c3.775,7.549 159.543,132.163 173.61,143.417c14.498,11.598 11.368,14.49 27.677,22.644" style="fill:none;stroke:#044421;stroke-width:20.83px;"/><path d="M3518.49,1676.11c27.46,6.865 24.86,12.044 51.529,20.934" style="fill:none;stroke:#044421;stroke-width:20.83px;"/><path d="M3378.39,1627.8c9.91,9.911 70.765,47.206 93.397,54.75" style="fill:none;stroke:#044421;stroke-width:20.83px;"/><path d="M2614.26,2983.84c13.253,4.418 3.391,17.418 149.392,90.421c68.843,34.423 64.831,40.278 70.765,43.246" style="fill:none;stroke:#044421;stroke-width:20.83px;"/><path d="M2763.65,3023.15c156.452,44.7 139.897,79.394 255.539,117.941" style="fill:none;stroke:#044421;stroke-width:20.83px;"/><path d="M2164.52,2603.29c1.08,14.035 7.339,95.404 72.337,160.4" style="fill:none;stroke:#d9332e;stroke-width:20.83px;"/><path d="M2444.43,2543.53c42.413,53.017 52.096,149.848 53.466,163.545" style="fill:none;stroke:#d9332e;stroke-width:20.83px;"/><path d="M1673.68,1772.72c-46.597,-265.697 -132.493,-426.395 -212.077,-522.583" style="fill:none;stroke:#81a190;stroke-width:62.5px;"/><path d="M1461.6,1250.14c-94.687,-114.441 -180.439,-137.566 -180.439,-137.566l397.82,-65.318" style="fill:none;stroke:#81a190;stroke-width:62.5px;"/><path d="M1678.98,1047.25l1083.97,-177.98" style="fill:none;stroke:#81a190;stroke-width:62.5px;"/><path d="M2762.95,869.273l91.057,-14.95c14.813,47.229 29.802,94.459 44.738,141.689" style="fill:none;stroke:#81a190;stroke-width:62.5px;"/><path d="M2898.74,996.012c81.875,258.903 162.152,517.805 203.076,776.708" style="fill:none;stroke:#81a190;stroke-width:62.5px;"/><path d="M3102.38,1776.26c19.26,122.925 29.61,245.85 27.009,368.776" style="fill:none;stroke:#81a190;stroke-width:62.5px;"/><path d="M1700.12,2239.58c3.208,-117.25 2.769,-236.051 -6.334,-322.265c-5.28,-50.014 -11.847,-96.971 -19.493,-141.052" style="fill:none;stroke:#81a190;stroke-width:62.5px;"/><path d="M3742.69,1776.26l-613.304,368.776" style="fill:none;stroke:#044421;stroke-width:62.5px;"/><path d="M3129.38,2145.04l-611.806,367.874" style="fill:none;stroke:#044421;stroke-width:62.5px;"/><path d="M942.284,1776.26l757.837,463.317" style="fill:none;stroke:#044421;stroke-width:62.5px;"/><path d="M1700.12,2239.58l421.855,257.908" style="fill:none;stroke:#044421;stroke-width:62.5px;"/><path d="M2124.06,2749.53c-20.25,-48.062 -31.977,-99.419 -29.772,-136.243c1.862,-31.081 11.365,-73.973 27.689,-115.803" style="fill:none;stroke:#d9332e;stroke-width:62.5px;"/><path d="M2121.98,2497.49c29.683,-76.064 81.918,-148.617 151.766,-140.258c86.255,10.322 -26.905,51.945 11.61,202.621c3.177,12.427 6.129,26.955 8.71,42.844" style="fill:none;stroke:#d9332e;stroke-width:62.5px;"/><path d="M2517.58,2512.91c7.968,12.988 15.253,26.248 21.732,39.169c-0,-0 38.855,98.094 3.908,202.939" style="fill:none;stroke:#d9332e;stroke-width:62.5px;"/><path d="M2385.7,2658.72c-3.432,-18.213 -7.31,-38.704 -10.967,-59.913" style="fill:none;stroke:#d9332e;stroke-width:62.5px;"/><path d="M2374.73,2598.8c-15.155,-87.884 -26.52,-188.102 13.363,-189.689c49.176,-1.957 95.526,48.442 129.483,103.796" style="fill:none;stroke:#d9332e;stroke-width:62.5px;"/></svg>