<?xml version="1.0" encoding="UTF-8" standalone="no"?><!DOCTYPE svg PUBLIC "-//W3C//DTD SVG 1.1//EN" "http://www.w3.org/Graphics/SVG/1.1/DTD/svg11.dtd"><svg width="100%" height="100%" viewBox="0 0 4500 4500" version="1.1" xmlns="http://www.w3.org/2000/svg" xmlns:xlink="http://www.w3.org/1999/xlink" xml:space="preserve" xmlns:serif="http://www.serif.com/" style="fill-rule:evenodd;clip-rule:evenodd;stroke-linecap:round;stroke-linejoin:round;stroke-miterlimit:1.5;"><rect id="Artboard17" x="0" y="0" width="4500" height="4500" style="fill:none;"/><circle cx="2214.97" cy="1675.51" r="354.208" style="fill:none;stroke:#044421;stroke-width:104.17px;"/><circle cx="2982.08" cy="1039.24" r="133.998" style="fill:none;stroke:#d9332e;stroke-width:62.5px;"/><path d="M817.349,4028.44c0,-790.702 641.95,-1432.65 1432.65,-1432.65c188.11,0 367.801,36.333 532.432,102.358" style="fill:none;stroke:#044421;stroke-width:104.17px;"/><path d="M3484.81,3301.97c125.7,213.051 197.841,461.399 197.841,726.463" style="fill:none;stroke:#044421;stroke-width:104.17px;"/><path d="M689.472,3527.36l906.08,0" style="fill:none;stroke:#d9332e;stroke-width:62.5px;"/><path d="M3582.86,1621.29l604.4,-0" style="fill:none;stroke:#81a190;stroke-width:62.5px;"/><g><path d="M1113.58,592.207l219.73,96.635" style="fill:none;stroke:#044421;stroke-width:83.33px;"/><path d="M1176.73,762.934l98.471,-240.93" style="fill:none;stroke:#044421;stroke-width:83.33px;"/></g><path d="M3272.11,3024.95c75.278,113.605 125.108,234.767 55.97,266.612c-113.153,52.119 -346.654,-102.546 -411.032,-218.972c-42.444,-76.759 -83.793,-228.035 -63.771,-343.784" style="fill:none;stroke:#d9332e;stroke-width:62.5px;"/><path d="M2853.28,2728.81c10.348,-59.817 37.085,-110.147 88.533,-135.8c120.306,-59.99 7.302,89.229 179.721,249.16c44.421,41.203 102.656,110.462 150.579,182.784" style="fill:none;stroke:#d9332e;stroke-width:62.5px;"/><path d="M3399.99,2603.69c0,-0 153.834,109.261 178.212,300.564c25.133,197.229 -58.539,278.272 -82.504,276.639c-98.781,-6.729 -86.847,-172.878 -154.371,-251.967c-67.524,-79.088 -330.532,-325.086 -253.719,-379.688c76.813,-54.601 212.891,-3.534 312.382,54.452Z" style="fill:none;stroke:#d9332e;stroke-width:62.5px;"/><path d="M312.741,2047.05c-0,0 6.229,-213.037 155.982,-242.331c149.753,-29.293 239.242,162.157 333.454,-3.002c94.212,-165.158 149.804,-229.982 264.026,-165.115" style="fill:none;stroke:#81a190;stroke-width:62.5px;"/><path d="M2935.77,2899.88c52.405,104.809 44.043,109.768 121.173,197.917c4.224,4.827 34.556,39.493 60.587,52.508" style="fill:none;stroke:#d9332e;stroke-width:20.83px;"/><path d="M3200.33,2683.79c0,19.733 188.99,141.694 208.015,179.741" style="fill:none;stroke:#d9332e;stroke-width:20.83px;"/><path d="M3448.74,2960.47c5.607,72.882 17.592,70.308 24.235,143.388" style="fill:none;stroke:#d9332e;stroke-width:20.83px;"/><path d="M3394.48,3431.88c10.907,109.065 126.535,221.493 148.311,482.8" style="fill:none;stroke:#044421;stroke-width:20.83px;"/><path d="M2428.88,1498.31c95.285,190.573 10.693,303.634 -22.089,369.2" style="fill:none;stroke:#044421;stroke-width:20.83px;"/></svg>