<?xml version="1.0" encoding="UTF-8" standalone="no"?><!DOCTYPE svg PUBLIC "-//W3C//DTD SVG 1.1//EN" "http://www.w3.org/Graphics/SVG/1.1/DTD/svg11.dtd"><svg width="100%" height="100%" viewBox="0 0 4500 4500" version="1.1" xmlns="http://www.w3.org/2000/svg" xmlns:xlink="http://www.w3.org/1999/xlink" xml:space="preserve" xmlns:serif="http://www.serif.com/" style="fill-rule:evenodd;clip-rule:evenodd;stroke-linecap:round;stroke-linejoin:round;stroke-miterlimit:1.5;"><rect id="Artboard16" x="0" y="0" width="4500" height="4500" style="fill:none;"/><circle cx="2082.37" cy="2318.16" r="624.631" style="fill:none;stroke:#044421;stroke-width:104.17px;"/><path d="M1575.36,3847.09c20.144,-326.622 291.776,-585.664 623.433,-585.664c297.154,0 546.122,207.948 609.196,486.136" style="fill:none;stroke:#044421;stroke-width:104.17px;stroke-linecap:butt;"/><path d="M1575.36,3847.09l-168.496,13.605c-276.169,22.3 -521.334,-164.607 -579.312,-427.877" style="fill:none;stroke:#81a190;stroke-width:62.5px;"/><path d="M800.53,3161.47l-130.9,-1621.16c-24.346,-301.518 200.684,-566.079 502.202,-590.425l1466.58,-118.418c301.519,-24.346 566.08,200.683 590.426,502.202l146.808,1818.18c24.346,301.518 -200.684,566.079 -502.203,590.425l-65.455,5.285" style="fill:none;stroke:#81a190;stroke-width:62.5px;"/><path d="M2807.99,3747.56l-1232.63,99.528" style="fill:none;stroke:#81a190;stroke-width:62.5px;"/><g><path d="M654.414,1067.04l237.302,85.256" style="fill:none;stroke:#d9332e;stroke-width:83.33px;"/><path d="M733.03,1241.35l85.636,-259.651" style="fill:none;stroke:#d9332e;stroke-width:83.33px;"/></g><path d="M2621.44,1171.25c18.136,-54.642 91.537,-158.794 159.798,-132.866c54.385,20.658 -26.236,28.508 -26.503,130.28c-0.177,67.407 -32.532,218.268 -82.315,197.575c-49.782,-20.693 -69.116,-140.346 -50.98,-194.989Z" style="fill:none;stroke:#d9332e;stroke-width:29.17px;"/><path d="M909.202,2435.63c-26.745,-50.984 -50.769,-176.117 15.277,-207.256c52.621,-24.81 2.311,38.674 75.386,109.509c48.4,46.916 134.538,174.925 85.087,196.397c-49.452,21.473 -149.004,-47.665 -175.75,-98.65Z" style="fill:none;stroke:#044421;stroke-width:29.17px;"/><path d="M2912.3,1187.24c-0,0 10.395,80.991 -43.295,144.886c-55.352,65.873 -105.683,63.045 -112.196,54.944c-26.849,-33.392 29.497,-78.356 34.835,-123.042c5.337,-44.685 6.393,-200.526 46.3,-192.12c39.908,8.407 63.601,66.673 74.356,115.332Z" style="fill:none;stroke:#d9332e;stroke-width:29.17px;"/><path d="M1122.61,2237.36c0,-0 65.517,48.736 74.243,131.735c8.997,85.57 -27.974,119.837 -38.327,118.903c-42.674,-3.851 -35.93,-75.623 -64.391,-110.483c-28.462,-34.86 -139.912,-143.794 -106.159,-166.686c33.753,-22.893 92.141,0.497 134.634,26.531Z" style="fill:none;stroke:#044421;stroke-width:29.17px;"/><path d="M3065.29,2774.79c-0,0 67.947,-185.723 208.373,-167.604c140.425,18.12 163.074,212.903 294.439,95.127c131.366,-117.776 199.313,-158.545 280.851,-67.948c81.537,90.597 185.723,81.537 271.79,-31.709" style="fill:none;stroke:#d9332e;stroke-width:62.5px;"/><path d="M827.552,3432.81c-14.316,4.94 -29.679,7.623 -45.664,7.623c-77.322,-0 -140.097,-62.775 -140.097,-140.097c0,-77.321 62.775,-140.096 140.097,-140.096c6.32,0 12.543,0.419 18.642,1.232" style="fill:none;stroke:#d9332e;stroke-width:62.5px;"/><path d="M800.53,3161.47c68.522,9.128 121.454,67.863 121.454,138.864c0,61.337 -39.502,113.519 -94.432,132.474" style="fill:none;stroke:#d9332e;stroke-width:62.5px;"/><path d="M2670.31,1287.12c-18.882,-89.689 -0.055,-108.516 6.463,-115.034" style="fill:none;stroke:#d9332e;stroke-width:20.83px;"/><path d="M2840.92,1135.58c-0,7.058 -0,64.627 -7.756,87.891c-3.044,9.132 -8.391,52.337 -11.632,55.578" style="fill:none;stroke:#d9332e;stroke-width:20.83px;"/><path d="M1043.45,2501.69c-8.578,-12.868 -29.73,1.723 -69.486,-52.942c-12.276,-16.88 -21.289,-21.072 -28.952,-36.397" style="fill:none;stroke:#044421;stroke-width:20.83px;"/><path d="M1045.94,2246.08c44.597,7.433 56.949,11.416 91.82,56.251c6.948,8.933 13.855,22.745 14.89,24.816" style="fill:none;stroke:#044421;stroke-width:20.83px;"/><path d="M2465.36,3455.64c15.048,6.02 124.252,49.701 160.933,123.067c8.994,17.989 53.873,73.262 63.112,100.978" style="fill:none;stroke:#044421;stroke-width:20.83px;"/><path d="M2312.32,2711.86c16.996,-1.545 120.983,-10.998 186.178,-104.134c3.628,-5.182 31.906,-45.579 37.867,-69.422" style="fill:none;stroke:#044421;stroke-width:20.83px;"/></svg>