<?xml version="1.0" encoding="UTF-8" standalone="no"?><!DOCTYPE svg PUBLIC "-//W3C//DTD SVG 1.1//EN" "http://www.w3.org/Graphics/SVG/1.1/DTD/svg11.dtd"><svg width="100%" height="100%" viewBox="0 0 4500 4500" version="1.1" xmlns="http://www.w3.org/2000/svg" xmlns:xlink="http://www.w3.org/1999/xlink" xml:space="preserve" xmlns:serif="http://www.serif.com/" style="fill-rule:evenodd;clip-rule:evenodd;stroke-linecap:round;stroke-linejoin:round;stroke-miterlimit:1.5;"><rect id="Artboard4" x="0" y="0" width="4500" height="4500" style="fill:none;"/><path d="M3232.86,650.489l165.564,-19.718" style="fill:none;stroke:#044421;stroke-width:62.5px;"/><path d="M1011.83,2997l165.564,-19.719" style="fill:none;stroke:#044421;stroke-width:62.5px;"/><circle cx="3524.37" cy="2719.37" r="62.401" style="fill:none;stroke:#044421;stroke-width:62.5px;"/><circle cx="3008.07" cy="451.541" r="62.401" style="fill:none;stroke:#d9332e;stroke-width:62.5px;"/><g><path d="M950.274,1737.57l202.579,60.719" style="fill:none;stroke:#044421;stroke-width:83.33px;"/><path d="M1023.96,1880.01l60.031,-221.314" style="fill:none;stroke:#044421;stroke-width:83.33px;"/></g><g><path d="M3396.64,3936.38l211.357,-7.3" style="fill:none;stroke:#d9332e;stroke-width:83.33px;"/><path d="M3512.03,4047.75l-13.948,-228.887" style="fill:none;stroke:#d9332e;stroke-width:83.33px;"/></g><g><path d="M2200.81,2335.37c0,0 -187.203,-58.93 -193.52,-197.967c-6.316,-139.037 149.243,-165.922 231.508,-147.859c82.264,18.062 136.117,44.238 182.449,99.774c-0,0 -100.303,-31.752 -183.31,-47.116c-80.973,-14.987 -147.015,20.125 -162.352,78.106c-15.337,57.981 28.644,96.117 62.719,137.355c31.935,38.647 60.072,76.3 62.506,77.707Z" style="fill:#044421;"/><path d="M2317.63,2216.88l41.957,51.554c0,-0 -41.353,23.22 -49.02,20.94c-0,0 -68.908,-76.882 -86.55,-98.479c-17.641,-21.596 -19.202,-36.068 -7.943,-44.866c11.258,-8.799 52.753,3.042 99.794,16.648c47.041,13.607 142.314,35.585 151.954,43.189c0,-0 4.864,-33.079 -8.632,-56.246c-0,-0 -199.364,-63.697 -260.517,-58.912c-61.153,4.784 -74.79,68.265 -49.854,99.048c24.937,30.783 115.454,132.239 136.065,153.296c0,0 9.044,5.413 36.411,2.843c27.368,-2.569 121.224,-31.36 136.489,-90.029c-0,-0 -1.716,-8.75 -140.154,-38.986Z" style="fill:#044421;"/></g><path d="M2660.94,1912.37l71.448,389.866c19.716,107.586 -51.623,210.94 -159.21,230.657l-586.974,107.57c-107.586,19.716 -210.94,-51.623 -230.657,-159.209l-71.448,-389.867c-19.716,-107.586 51.623,-210.94 159.21,-230.657l586.974,-107.57c107.586,-19.716 210.94,51.623 230.657,159.21Z" style="fill:none;stroke:#d9332e;stroke-width:62.5px;"/><path d="M1886.12,2971.39c0,0 891.275,-170.891 962.134,-173.514" style="fill:none;stroke:#044421;stroke-opacity:0.5;stroke-width:41.67px;"/><path d="M2152,2783.44c-0,0 449.291,-74.151 453.926,-76.64" style="fill:none;stroke:#044421;stroke-opacity:0.5;stroke-width:41.67px;"/><path d="M2761.37,470.986c36.207,85.182 22.525,204.839 41.067,308.968c-533.765,44.348 -1043.01,115.683 -1529.31,212.265c-64.868,-96.624 -59.92,-208.574 -78.111,-290.55c461.617,-141.139 986.169,-219.507 1566.35,-230.683Z" style="fill:none;stroke:#044421;stroke-width:62.5px;"/><path d="M2803.07,778.251c-10.931,57.097 154.923,720.758 331.597,1430.46c139.175,559.069 340.354,1172 375.678,1210.5c-528.59,80.941 -1589.99,309.027 -2077.16,413.101c-34.934,-57.055 -61.255,-425.921 -57.847,-852.843c6.54,-819.358 -110.845,-1937.33 -101.156,-1987.6c484.856,-88.335 974.363,-179.089 1528.88,-213.623Z" style="fill:none;stroke:#044421;stroke-width:83.33px;"/><path d="M3581.24,3419.21c14.618,34.239 31.534,114.445 32.521,112.511c-410.828,91.795 -1718.32,349.345 -2258.12,438.905c-1.812,-29.761 -22.032,-98.991 -5.823,-119.613c438.322,-106.036 1615.61,-329.227 2231.42,-431.803Z" style="fill:none;stroke:#044421;stroke-width:62.5px;"/><path d="M779.061,2728.55c-29.902,-50.708 -61.181,-176.365 3.913,-209.72c51.863,-26.574 4.492,38.985 82.379,108.395c51.587,45.973 145.876,172.737 97.035,195.85c-48.842,23.113 -153.425,-43.818 -183.327,-94.525Z" style="fill:none;stroke:#d9332e;stroke-width:41.67px;"/><path d="M3211.01,1069.8c38.089,-44.885 146.527,-115.662 199.394,-65.115c42.12,40.272 -35.353,17.035 -75.365,113.384c-26.502,63.815 -115.31,194.477 -153.169,155.924c-37.859,-38.554 -8.949,-159.308 29.14,-204.193Z" style="fill:none;stroke:#d9332e;stroke-width:41.67px;"/><path d="M1003.75,2527.75c-0,-0 69.007,47.315 82.46,130.871c13.87,86.144 -21.631,121.815 -32.158,121.172c-43.394,-2.654 -40.568,-75.321 -71.308,-109.697c-30.741,-34.376 -149.579,-141.147 -116.702,-165.239c32.878,-24.093 93.261,-2.165 137.708,22.893Z" style="fill:none;stroke:#d9332e;stroke-width:41.67px;"/><path d="M3474.42,1216.17c-0,-0 -22.053,80.712 -96.569,120.836c-76.825,41.367 -122.17,19.536 -125.016,9.38c-11.731,-41.863 57.84,-63.035 80.227,-103.354c22.386,-40.318 84.253,-187.609 117.8,-164.457c33.546,23.152 32.645,87.387 23.558,137.595Z" style="fill:none;stroke:#d9332e;stroke-width:41.67px;"/><path d="M3160.37,2904.77c17.466,87.33 70.011,212.523 88.456,230.969c24.57,24.57 41.448,58.325 44.229,63.885" style="fill:none;stroke:#044421;stroke-width:20.83px;"/><path d="M3189.85,3189.79c44.901,89.797 79.075,71.036 98.284,167.084" style="fill:none;stroke:#044421;stroke-width:20.83px;"/><path d="M3331.38,3266.46c41.935,20.967 54.886,85.721 56.612,94.353" style="fill:none;stroke:#044421;stroke-width:20.83px;"/><path d="M1387.71,1097.12c0.632,9.474 -2.246,9.44 28.306,223.302" style="fill:none;stroke:#044421;stroke-width:20.83px;"/><path d="M1371.98,1260.67c1.51,18.123 5.591,67.101 56.612,220.157" style="fill:none;stroke:#044421;stroke-width:20.83px;"/><path d="M1444.32,1389.62c16.36,38.172 19.229,35.313 37.741,72.337" style="fill:none;stroke:#044421;stroke-width:20.83px;"/><path d="M3204.88,1222.58c1.818,-9.816 15.179,-81.967 41.868,-117.551" style="fill:none;stroke:#d9332e;stroke-width:20.83px;"/><path d="M3439.98,1154.94c-5.91,47.279 -10.106,45.697 -19.324,91.787" style="fill:none;stroke:#d9332e;stroke-width:20.83px;"/><path d="M816.576,2652.98c27.338,27.338 39.723,25.1 68.437,82.527" style="fill:none;stroke:#d9332e;stroke-width:20.83px;"/><path d="M1005.78,2598.63c16.982,16.982 23.921,61.699 26.167,68.438" style="fill:none;stroke:#d9332e;stroke-width:20.83px;"/><path d="M1280.39,759.876c153.088,-65.608 155.519,-56.247 320.448,-83.735" style="fill:none;stroke:#044421;stroke-width:20.83px;"/><path d="M1293.27,817.847c106.463,-53.231 106.589,-57.59 225.441,-61.191" style="fill:none;stroke:#044421;stroke-width:20.83px;"/><path d="M1306.15,859.715c-12.882,-0 88.672,-50.777 96.618,-54.75c15.387,-7.694 50.296,-10.868 54.75,-11.272" style="fill:none;stroke:#044421;stroke-width:20.83px;"/></svg>