<?xml version="1.0" encoding="UTF-8" standalone="no"?><!DOCTYPE svg PUBLIC "-//W3C//DTD SVG 1.1//EN" "http://www.w3.org/Graphics/SVG/1.1/DTD/svg11.dtd"><svg width="100%" height="100%" viewBox="0 0 4500 4500" version="1.1" xmlns="http://www.w3.org/2000/svg" xmlns:xlink="http://www.w3.org/1999/xlink" xml:space="preserve" xmlns:serif="http://www.serif.com/" style="fill-rule:evenodd;clip-rule:evenodd;stroke-linecap:round;stroke-linejoin:round;stroke-miterlimit:1.5;"><rect id="Artboard3" x="0" y="0" width="4500" height="4500" style="fill:none;"/><circle cx="3368.49" cy="3641.52" r="91.765" style="fill:none;stroke:#000;stroke-width:41.67px;"/><circle cx="950.69" cy="2979.08" r="70.142" style="fill:none;stroke:#000;stroke-width:41.67px;"/><circle cx="3242.84" cy="1722.04" r="70.142" style="fill:#044421;"/><path d="M3120.19,3049.22l588.934,-70.142" style="fill:none;stroke:#d9332e;stroke-width:83.33px;"/><path d="M922.548,3654.66l243.473,-28.998" style="fill:none;stroke:#d9332e;stroke-width:83.33px;"/><g><path d="M921.109,2272.36l134.304,96.311" style="fill:none;stroke:#044421;stroke-width:83.33px;"/><path d="M939.404,2396.34l100.559,-148.326" style="fill:none;stroke:#044421;stroke-width:83.33px;"/></g><g><path d="M2059.5,3018.83c-0,-0 -166.289,-52.347 -171.9,-175.851c-5.611,-123.504 132.57,-147.385 205.644,-131.34c73.074,16.044 120.91,39.296 162.066,88.628c-0,-0 -89.097,-28.205 -162.831,-41.853c-71.927,-13.313 -130.591,17.877 -144.215,69.38c-13.623,51.503 25.444,85.379 55.713,122.01c28.367,34.33 53.36,67.775 55.523,69.026Z"/><path d="M2163.26,2913.58l37.27,45.794c-0,0 -36.733,20.626 -43.544,18.602c-0,-0 -61.21,-68.294 -76.88,-87.478c-15.671,-19.183 -17.057,-32.038 -7.057,-39.854c10.001,-7.815 46.86,2.702 88.646,14.789c41.785,12.086 126.414,31.609 134.978,38.363c-0,0 4.32,-29.383 -7.669,-49.962c0,0 -177.09,-56.58 -231.411,-52.33c-54.322,4.25 -66.435,60.639 -44.284,87.982c22.15,27.344 102.555,117.466 120.864,136.171c-0,-0 8.033,4.807 32.343,2.525c24.31,-2.283 107.68,-27.857 121.24,-79.972c-0,0 -1.524,-7.772 -124.496,-34.63Z"/></g><path d="M1258.39,1784.98c-0.019,-0.111 -0.035,-0.222 -0.046,-0.333c-3.596,-33.712 316.756,-95.556 714.934,-138.018c398.179,-42.463 724.368,-49.567 727.963,-15.855c0,0.003 0.001,0.006 0.001,0.009" style="fill:none;stroke:#044421;stroke-width:62.5px;"/><path d="M2701.24,1630.78c3.534,33.714 -316.795,95.55 -714.936,138.009c-396.862,42.322 -722.209,49.519 -727.916,16.188" style="fill:none;stroke:#044421;stroke-width:62.5px;"/><path d="M2703.76,1721.36c3.534,33.714 -316.795,95.55 -714.936,138.009c-396.862,42.322 -722.209,49.519 -727.916,16.188" style="fill:none;stroke:#044421;stroke-width:41.67px;"/><path d="M2899.22,3577.72c16.8,158.12 -292.758,320.953 -690.899,363.411c-396.862,42.322 -732.911,-50.829 -751.826,-208.017" style="fill:none;stroke:#044421;stroke-width:41.67px;"/><path d="M2701.24,1630.78l0.029,-0.003l225.278,2107.98l-0.447,0.048c0.004,0.04 0.009,0.08 0.013,0.12c13.701,128.48 -298.445,267.263 -696.624,309.726c-398.178,42.462 -732.572,-27.373 -746.274,-155.853c-0.261,-2.45 -0.404,-4.904 -0.43,-7.36l-224.473,-2100.45l0.076,-0.008" style="fill:none;stroke:#044421;stroke-width:62.5px;"/><path d="M1679.35,661.622c-8.134,-64.433 12.157,-209.01 86.867,-221.519c59.524,-9.967 -11.218,43.017 34.82,144.239c30.492,67.043 69.277,235.003 13.979,242.355c-55.297,7.352 -127.533,-100.643 -135.666,-165.075Z" style="fill:none;stroke:#d9332e;stroke-width:33.33px;"/><path d="M1682.77,1310.66c33.59,-55.582 139.191,-156.394 205.549,-119.86c52.869,29.107 -35.484,26.782 -62.166,134.733c-17.672,71.499 -91.442,227.297 -139.375,198.761c-47.933,-28.536 -37.598,-158.051 -4.008,-213.634Z" style="fill:none;stroke:#d9332e;stroke-width:33.33px;"/><path d="M2258.5,1247.21c-53.551,-36.742 -148.099,-147.985 -107.796,-212.124c32.11,-51.101 24.689,36.971 130.92,69.839c70.36,21.769 221.64,104.409 190.385,150.615c-31.255,46.206 -159.958,28.413 -213.509,-8.33Z" style="fill:none;stroke:#d9332e;stroke-width:33.33px;"/><path d="M1962.1,530.051c-0,-0 43.775,76.187 20.084,168.963c-24.425,95.65 -72.963,119.367 -82.491,114.636c-39.275,-19.5 -5.139,-94.588 -18.874,-142.469c-13.735,-47.88 -78.156,-205.593 -37.082,-218.183c41.073,-12.59 87.82,33.66 118.363,77.053Z" style="fill:none;stroke:#d9332e;stroke-width:33.33px;"/><path d="M1986.16,1382.86c0,-0 -12.926,86.911 -89.06,144.983c-78.492,59.87 -131.274,48.364 -135.813,38.742c-18.709,-39.658 54.645,-77.377 73.574,-123.452c18.929,-46.074 66.234,-209.738 106.26,-194.133c40.026,15.604 48.001,80.878 45.039,133.86Z" style="fill:none;stroke:#d9332e;stroke-width:33.33px;"/><path d="M2348.09,948.493c0,0 86.021,17.922 139.601,97.28c55.241,81.817 40.707,133.847 30.839,137.823c-40.672,16.388 -74.094,-59.02 -118.999,-80.577c-44.906,-21.556 -205.565,-78.23 -187.677,-117.288c17.889,-39.058 83.515,-43.252 136.236,-37.238Z" style="fill:none;stroke:#d9332e;stroke-width:33.33px;"/><path d="M2071.1,2614.8c262.121,-30.016 487.922,59.071 503.925,198.818c16.003,139.747 -183.814,277.573 -445.935,307.589c-262.122,30.017 -487.923,-59.071 -503.926,-198.818c-16.003,-139.747 183.814,-277.573 445.936,-307.589Z" style="fill:none;stroke:#d9332e;stroke-width:41.67px;"/><path d="M2648.42,2219.7l243.473,-28.997" style="fill:none;stroke:#d9332e;stroke-width:83.33px;"/><path d="M1537.19,3467.3c6.165,104.808 11.114,102.745 31.451,204.432" style="fill:none;stroke:#044421;stroke-width:20.83px;"/><path d="M1611.89,3585.24c36.402,145.608 36.771,144.539 39.314,157.255" style="fill:none;stroke:#044421;stroke-width:20.83px;"/><path d="M1588.3,3754.29c11.794,11.794 18.735,39.559 19.657,43.245" style="fill:none;stroke:#044421;stroke-width:20.83px;"/><path d="M1274.1,1936.26c139.703,5.174 139.709,19.069 269.221,-2.516" style="fill:none;stroke:#044421;stroke-width:20.83px;"/><path d="M2630.55,2405.4c18.471,147.772 22.737,145.001 58.971,289.939" style="fill:none;stroke:#044421;stroke-width:20.83px;"/><path d="M2689.52,2498.77c29.471,117.879 26.232,116.35 39.314,142.513" style="fill:none;stroke:#044421;stroke-width:20.83px;"/><path d="M2748.49,2749.4c8.191,16.382 27.503,112.944 29.485,122.855" style="fill:none;stroke:#044421;stroke-width:20.83px;"/><path d="M1716.75,619.887c3.8,51.311 -1.13,52.088 22.141,98.63c9.276,18.552 8.631,18.696 12.077,22.142" style="fill:none;stroke:#d9332e;stroke-width:20.83px;"/><path d="M1903.94,521.257c45.961,45.96 51.151,82.294 52.335,90.579" style="fill:none;stroke:#d9332e;stroke-width:20.83px;"/><path d="M2262.24,996.293c29.194,7.298 87.012,33.103 102.657,36.232" style="fill:none;stroke:#d9332e;stroke-width:20.83px;"/><path d="M2298.47,1217.71c16.689,16.688 116.544,19.808 126.811,20.129" style="fill:none;stroke:#d9332e;stroke-width:20.83px;"/><path d="M1698.63,1408.43c1.699,-10.196 10.567,-63.403 40.257,-122.784" style="fill:none;stroke:#d9332e;stroke-width:20.83px;"/><path d="M1946.22,1329.93c-0.83,26.574 3.922,26.692 -10.064,96.617" style="fill:none;stroke:#d9332e;stroke-width:20.83px;"/></svg>