<?xml version="1.0" encoding="UTF-8" standalone="no"?><!DOCTYPE svg PUBLIC "-//W3C//DTD SVG 1.1//EN" "http://www.w3.org/Graphics/SVG/1.1/DTD/svg11.dtd"><svg width="100%" height="100%" viewBox="0 0 4500 4500" version="1.1" xmlns="http://www.w3.org/2000/svg" xmlns:xlink="http://www.w3.org/1999/xlink" xml:space="preserve" xmlns:serif="http://www.serif.com/" style="fill-rule:evenodd;clip-rule:evenodd;stroke-linecap:round;stroke-linejoin:round;stroke-miterlimit:1.5;"><rect id="Artboard18" x="0" y="0" width="4500" height="4500" style="fill:none;"/><path d="M1897.28,2262.97c124.625,164.12 56.959,610.678 257.3,839.701c102.044,116.654 137.449,322.678 62.314,449.635l-692.527,143.741" style="fill:none;stroke:#044421;stroke-width:62.5px;"/><path d="M1096.16,3784.53c-120.678,-91.403 -240.543,-264.831 -311.655,-506.223" style="fill:none;stroke:#044421;stroke-width:62.5px;"/><path d="M3349.22,2399.56c-0,-0 87.199,128.617 108.41,270.952" style="fill:none;stroke:#044421;stroke-width:41.67px;"/><path d="M3001.19,2080.61c-0,-0 29.459,114.891 26.513,284.282" style="fill:none;stroke:#044421;stroke-width:41.67px;"/><path d="M2909.87,2277.99c-0,-0 -139.771,35.351 -161.209,173.809" style="fill:none;stroke:#044421;stroke-width:41.67px;"/><path d="M3369.44,2799.44c0,0 -143.54,-995.4 244.998,-1369.39" style="fill:none;stroke:#044421;stroke-width:41.67px;"/><path d="M3349.22,2603.1c-0,0 -56.562,35.351 -54.205,146.118" style="fill:none;stroke:#044421;stroke-width:41.67px;"/><path d="M3214.72,1752.26c0,0 -489.069,275.845 -523.592,655.761c-34.522,379.916 -97.814,437.453 69.045,638.835c0,-0 362.487,-184.121 454.547,-1294.6Z" style="fill:none;stroke:#044421;stroke-width:62.5px;"/><path d="M3398.84,1832.81c-0,-0 -408.517,978.139 5.753,1121.98c0,-0 109.322,-126.583 115.076,-230.151c5.753,-103.567 -86.306,-776.757 -120.829,-891.832Z" style="fill:none;stroke:#044421;stroke-width:62.5px;"/><path d="M2748.66,2799.44c-0,0 230.15,-1162.26 886.079,-1369.39" style="fill:none;stroke:#044421;stroke-width:41.67px;"/><path d="M2816.46,2541.58c-0,0 55.112,113.518 63.949,257.868" style="fill:none;stroke:#044421;stroke-width:41.67px;"/><circle cx="217.223" cy="1807.73" r="87.851" style="fill:none;stroke:#044421;stroke-width:62.5px;"/><circle cx="3957.17" cy="2320.17" r="87.851" style="fill:none;stroke:#81a190;stroke-width:62.5px;"/><ellipse cx="2582.4" cy="2101.96" rx="107.989" ry="142.512" style="fill:#d9332e;"/><path d="M3075.78,2979.94c34.668,-48.481 114.757,-50.697 178.737,-4.946c63.979,45.751 87.776,122.256 53.108,170.736c-34.668,48.481 -114.758,50.697 -178.737,4.946c-63.979,-45.751 -87.776,-122.255 -53.108,-170.736Z" style="fill:#d9332e;"/><path d="M729.339,1281.43l2860.92,23.343" style="fill:none;stroke:#d9332e;stroke-width:62.5px;"/><path d="M716.45,2445.07l0,-1146.32c0,-399.862 324.637,-724.499 724.498,-724.499l1449,0c399.862,0 724.498,324.637 724.498,724.499l0,1672.81c0,399.861 -324.636,724.498 -724.498,724.498l-696.048,0" style="fill:none;stroke:#044421;stroke-width:62.5px;"/><path d="M1535.98,3696.05l-11.616,0" style="fill:none;stroke:#044421;stroke-width:62.5px;"/><path d="M784.502,3278.3c-43.655,-93.172 -68.052,-197.135 -68.052,-306.752l0,-392.82" style="fill:none;stroke:#044421;stroke-width:62.5px;"/><path d="M476.249,876.748l594.039,-0" style="fill:none;stroke:#d9332e;stroke-width:62.5px;"/><g><path d="M2969.91,888.508l148.931,166.204" style="fill:none;stroke:#d9332e;stroke-width:83.33px;"/><path d="M2957.82,1057.31l175.9,-166.176" style="fill:none;stroke:#d9332e;stroke-width:83.33px;"/></g><path d="M716.45,2445.07l1157.17,-310.053c29.252,-7.838 59.259,9.576 66.969,38.862l5.086,19.322c7.709,29.286 -9.781,59.426 -39.033,67.264l-9.369,2.51" style="fill:none;stroke:#81a190;stroke-width:62.5px;"/><path d="M1897.28,2262.97l-1165.24,312.213" style="fill:none;stroke:#044421;stroke-width:62.5px;"/><path d="M732.041,2575.18l-7.514,2.014c-2.692,0.721 -5.39,1.228 -8.077,1.532" style="fill:none;stroke:#044421;stroke-width:62.5px;"/><path d="M716.45,2578.73c-26.509,3 -51.892,-13.803 -58.892,-40.395l-5.086,-19.321c-7.709,-29.286 9.781,-59.427 39.033,-67.264l24.945,-6.684" style="fill:none;stroke:#81a190;stroke-width:62.5px;"/><path d="M2193.9,3696.05l-1136.48,228.621c-29.696,5.973 -58.582,-13.301 -64.466,-43.015l-3.881,-19.604c-5.884,-29.714 13.449,-58.688 43.145,-64.662l63.943,-12.863" style="fill:none;stroke:#81a190;stroke-width:62.5px;"/><path d="M1096.16,3784.53l62.841,-12.641" style="fill:none;stroke:#044421;stroke-width:62.5px;"/><path d="M1159,3771.88l376.981,-75.836" style="fill:none;stroke:#044421;stroke-width:62.5px;"/><path d="M732.041,2575.18c0.033,-0.298 0.066,-0.596 0.099,-0.894l1164.04,-312.743c0.365,0.472 0.729,0.947 1.092,1.424" style="fill:none;stroke:#81a190;stroke-width:62.5px;"/><path d="M1524.36,3696.05l-365.365,75.836" style="fill:none;stroke:#81a190;stroke-width:62.5px;"/><path d="M1159,3771.88l-62.424,12.956c-0.139,-0.105 -0.278,-0.21 -0.417,-0.315" style="fill:none;stroke:#81a190;stroke-width:62.5px;"/><path d="M784.502,3278.3c-56.923,-193.228 -82.607,-430.005 -52.461,-703.118" style="fill:none;stroke:#044421;stroke-width:62.5px;"/><path d="M1806.75,2814.23l96.658,363.228c19.873,74.677 -24.549,151.709 -99.136,171.913l-518.444,140.437c-74.587,20.205 -151.276,-24.02 -171.148,-98.697l-96.659,-363.229c-19.872,-74.677 24.549,-151.709 99.136,-171.913l518.444,-140.437c74.587,-20.204 151.276,24.021 171.149,98.698Z" style="fill:none;stroke:#d9332e;stroke-width:62.5px;"/><g><path d="M1448.41,3272.34c-0,0 -180.725,-45.43 -194.968,-178.194c-14.242,-132.764 131.426,-167.647 210.378,-155.185c78.952,12.463 131.49,34.363 178.651,84.82c0,0 -96.842,-24.511 -176.337,-34.346c-77.546,-9.593 -137.981,27.909 -149.055,84.33c-11.073,56.42 32.83,90.354 67.539,127.839c32.529,35.131 61.403,69.532 63.792,70.736Z" style="fill:#044421;"/><path d="M1551.96,3152.01l42.784,46.9c-0,0 -37.768,24.664 -45.163,22.932c0,0 -69.803,-69.57 -87.787,-89.214c-17.985,-19.643 -20.322,-33.408 -10.187,-42.495c10.135,-9.087 50.122,-0.187 95.464,10.079c45.341,10.265 136.84,25.712 146.419,32.427c-0,-0 2.638,-31.96 -11.515,-53.351c-0,-0 -192.52,-49.28 -250.129,-41.105c-57.608,8.174 -66.745,69.762 -41.309,97.773c25.436,28.011 117.157,119.842 137.921,138.795c0,-0 8.883,4.651 34.639,0.583c25.756,-4.069 112.897,-37.152 123.861,-94.228c0,0 -2.144,-8.277 -134.998,-29.096Z" style="fill:#044421;"/></g><path d="M3038.01,3610.1c-0,-0 85.791,-234.496 263.092,-211.618c177.301,22.877 205.899,268.812 371.761,120.107c165.862,-148.704 251.653,-200.179 354.602,-85.791c102.95,114.388 234.496,102.949 343.164,-40.035" style="fill:none;stroke:#d9332e;stroke-width:62.5px;"/><path d="M1535.98,3696.05l788.064,-158.531c29.696,-5.974 58.582,13.301 64.465,43.015l3.882,19.603c5.883,29.715 -13.45,58.689 -43.146,64.663l-155.348,31.25" style="fill:none;stroke:#81a190;stroke-width:62.5px;"/><path d="M3133.59,3050.47c60.154,60.153 111.189,65.824 122.278,67.056" style="fill:none;stroke:#ebebeb;stroke-width:20.83px;"/><path d="M3124.7,2992.92c9.811,-4.906 8.949,-5.144 19.603,-7.97c-2.736,10.312 -1.335,11.115 -5.386,13.14c-9.311,4.656 -6.939,-2.008 -9.047,-5.17" style="fill:none;stroke:#ebebeb;stroke-width:20.83px;"/><path d="M2622.88,2019.66c-29.089,-4.848 -15.954,-16.513 -14.218,-16.803c9.719,-1.62 24.269,11.825 16.803,16.803" style="fill:none;stroke:#ebebeb;stroke-width:20.83px;"/><path d="M2515.6,2068.78c-13.613,95.298 27.594,105.144 54.286,131.837" style="fill:none;stroke:#ebebeb;stroke-width:20.83px;"/><path d="M2549.69,2124.01c0.318,1.907 1.728,25.966 32.054,31.02" style="fill:none;stroke:#ebebeb;stroke-width:20.83px;"/><path d="M2726.83,2876.57c0.488,4.39 3.544,31.896 19.388,51.7c10.653,13.317 7.492,15.248 19.387,27.143" style="fill:none;stroke:#044421;stroke-width:20.83px;"/><path d="M2765.6,2902.42c1.417,1.771 13.295,16.618 19.388,20.68" style="fill:none;stroke:#044421;stroke-width:20.83px;"/><path d="M3109.41,1990.55c-12.426,86.981 -17.89,85.366 -32.313,171.905" style="fill:none;stroke:#044421;stroke-width:20.83px;"/><path d="M3119.75,2086.2c-2.658,39.869 -5.944,39.026 -11.632,78.844" style="fill:none;stroke:#044421;stroke-width:20.83px;"/><path d="M3291.9,2429.1c-1.243,9.945 -9.088,72.707 4.039,125.213" style="fill:none;stroke:#044421;stroke-width:20.83px;"/><path d="M3398.93,2206.95c18.551,74.204 23.757,72.66 28.274,149.447" style="fill:none;stroke:#044421;stroke-width:20.83px;"/><path d="M2085.31,3164.66c75.14,112.712 69.422,117.514 69.422,252.444" style="fill:none;stroke:#044421;stroke-width:20.83px;"/><path d="M2110.55,3344.52c-0.246,6.138 6.462,5.256 -9.467,116.755" style="fill:none;stroke:#044421;stroke-width:20.83px;"/><path d="M819.934,2685.01c-6.281,25.125 -42.074,168.299 34.711,321.866" style="fill:none;stroke:#044421;stroke-width:20.83px;"/><path d="M889.356,2647.09c-18.933,37.867 -18.933,197.344 -18.933,214.577" style="fill:none;stroke:#044421;stroke-width:20.83px;"/></svg>