<?xml version="1.0" encoding="UTF-8" standalone="no"?><!DOCTYPE svg PUBLIC "-//W3C//DTD SVG 1.1//EN" "http://www.w3.org/Graphics/SVG/1.1/DTD/svg11.dtd"><svg width="100%" height="100%" viewBox="0 0 4500 4500" version="1.1" xmlns="http://www.w3.org/2000/svg" xmlns:xlink="http://www.w3.org/1999/xlink" xml:space="preserve" xmlns:serif="http://www.serif.com/" style="fill-rule:evenodd;clip-rule:evenodd;stroke-linecap:round;stroke-linejoin:round;stroke-miterlimit:1.5;"><rect id="Artboard6" x="0" y="0" width="4500" height="4500" style="fill:none;"/><path d="M895.367,1935.83l2736.62,-556.772" style="fill:none;stroke:#d9332e;stroke-width:62.5px;"/><path d="M2839.07,1112.25l251.54,-51.291c261.626,-53.348 517.344,115.747 570.692,377.373l193.319,948.066c50.354,246.944 -97.469,488.625 -334.225,559.833" style="fill:none;stroke:#044421;stroke-width:83.33px;stroke-linecap:butt;"/><path d="M2238.92,3209.6l-572.067,116.65c-261.626,53.348 -517.344,-115.748 -570.692,-377.374l-193.319,-948.065c-53.348,-261.626 115.747,-517.344 377.373,-570.692l218.093,-44.471" style="fill:none;stroke:#044421;stroke-width:83.33px;stroke-linecap:butt;"/><path d="M1644.48,1355.84l1048.43,-213.784" style="fill:none;stroke:#044421;stroke-width:83.33px;stroke-linecap:butt;"/><path d="M1629.31,2109.1l59.678,279.492l-301.439,64.364l-59.678,-279.491l301.439,-64.365Z" style="fill:none;stroke:#81a190;stroke-width:62.5px;"/><path d="M1747.36,2759.92l59.678,279.491l-301.438,64.364l-59.678,-279.491l301.438,-64.364Z" style="fill:none;stroke:#81a190;stroke-width:62.5px;"/><path d="M2932.77,1825.63l59.678,279.491l-301.438,64.364l-59.678,-279.491l301.438,-64.364Z" style="fill:none;stroke:#81a190;stroke-width:62.5px;"/><path d="M3356.68,2392.95l286.953,-61.271l59.678,279.491l-218.883,46.737" style="fill:none;stroke:#81a190;stroke-width:62.5px;"/><path d="M2163.03,2887.93l-39.404,-184.543l208.944,-44.614" style="fill:none;stroke:#81a190;stroke-width:62.5px;"/><path d="M2239.83,2265.01l-237.081,50.623l-59.678,-279.491l269.741,-57.597" style="fill:none;stroke:#81a190;stroke-width:62.5px;"/><path d="M3514.92,1709.25l59.678,279.491l-301.438,64.365l-59.678,-279.491l301.438,-64.365Z" style="fill:none;stroke:#81a190;stroke-width:62.5px;"/><circle cx="2549.7" cy="3968.55" r="116.191" style="fill:none;stroke:#d9332e;stroke-width:83.33px;"/><circle cx="710.426" cy="1240.6" r="74.882" style="fill:none;stroke:#d9332e;stroke-width:62.5px;"/><g><path d="M2761.44,516.018l259.728,78.581" style="fill:none;stroke:#044421;stroke-width:83.33px;"/><path d="M2855.51,699.034l77.76,-283.77" style="fill:none;stroke:#044421;stroke-width:83.33px;"/></g><path d="M641.356,2883.57c-0,0 49.966,-266.648 244.063,-273.865c194.097,-7.218 268.76,251.216 419.889,62.172" style="fill:none;stroke:#d9332e;stroke-width:83.33px;"/><g><path d="M2760.38,3568.64l-9.96,-153.903c0,-0 -316.008,-23.932 -511.499,-205.14" style="fill:none;stroke:#d9332e;stroke-width:62.5px;"/><path d="M2238.92,3209.6c-40.083,-37.155 -75.1,-80.923 -101.287,-132.452c-64.975,-127.853 -35.291,-178.722 25.399,-189.219" style="fill:none;stroke:#d9332e;stroke-width:62.5px;"/><path d="M2163.03,2887.93c61.175,-10.579 153.854,19.862 212.847,53.829" style="fill:none;stroke:#d9332e;stroke-width:62.5px;"/><path d="M2375.88,2941.75c21.108,12.154 37.903,24.759 47.399,36.098c0,0 -4.837,-15.766 -13.055,-43.431" style="fill:none;stroke:#d9332e;stroke-width:62.5px;"/><path d="M2410.22,2934.42c-16.336,-54.993 -46.033,-157.005 -77.651,-275.653" style="fill:none;stroke:#d9332e;stroke-width:62.5px;"/><path d="M2332.57,2658.77c-33.213,-124.633 -68.547,-267.623 -92.743,-393.759" style="fill:none;stroke:#d9332e;stroke-width:62.5px;"/><path d="M2239.83,2265.01c-23.354,-121.742 -36.333,-227.784 -27.018,-286.465" style="fill:none;stroke:#d9332e;stroke-width:62.5px;"/><path d="M2212.81,1978.54c4.45,-28.03 13.987,-45.253 29.909,-48.22c133.213,-24.823 276.567,451.777 284.324,570.928c-0,-0 549.385,-252.304 730.348,-190.692c33.244,11.318 67.222,40.829 99.283,82.39" style="fill:none;stroke:#d9332e;stroke-width:62.5px;"/><path d="M3356.68,2392.95c50.98,66.085 97.116,162.635 127.748,264.957" style="fill:none;stroke:#d9332e;stroke-width:62.5px;"/><path d="M3484.43,2657.91c29.353,98.052 44.471,201.403 35.974,288.324" style="fill:none;stroke:#d9332e;stroke-width:62.5px;"/><path d="M3520.4,2946.23c-7.416,75.863 -32.819,139.21 -82.446,175.594l-69.1,49.646l114.186,214.253" style="fill:none;stroke:#d9332e;stroke-width:62.5px;"/></g><path d="M1498.31,1385.64l-31.418,-174.253c-3.651,-20.251 9.825,-39.657 30.076,-43.308l73.384,-13.231c20.251,-3.651 39.657,9.826 43.308,30.077l30.815,170.91" style="fill:#d9332e;stroke:#d9332e;stroke-width:62.5px;"/><path d="M1644.48,1355.84l24.661,136.774c3.651,20.251 -9.826,39.656 -30.077,43.308l-73.384,13.231c-20.251,3.651 -39.656,-9.826 -43.308,-30.077l-24.057,-133.431" style="fill:#d9332e;stroke:#d9332e;stroke-width:62.5px;"/><path d="M2692.91,1142.06l-29.738,-164.935c-3.651,-20.251 9.825,-39.657 30.076,-43.308l73.385,-13.231c20.25,-3.651 39.656,9.825 43.307,30.076l29.135,161.593" style="fill:#d9332e;stroke:#d9332e;stroke-width:62.5px;"/><path d="M2839.07,1112.25l26.341,146.092c3.651,20.251 -9.826,39.656 -30.077,43.308l-73.384,13.231c-20.251,3.651 -39.656,-9.826 -43.308,-30.077l-25.737,-142.749" style="fill:#d9332e;stroke:#d9332e;stroke-width:62.5px;"/><path d="M3294.65,2570.43c82.813,101.925 71.907,107.93 97.497,235.882" style="fill:none;stroke:#d9332e;stroke-width:20.83px;"/><path d="M3355.66,2567.28c34.1,34.1 34.629,46.015 35.225,47.805" style="fill:none;stroke:#d9332e;stroke-width:20.83px;"/><path d="M3205.17,1193.04c108.88,-21.776 222.115,58.571 229.591,66.047" style="fill:none;stroke:#044421;stroke-width:20.83px;"/><path d="M3264.93,1249.65c17.917,3.36 133.466,25.025 213.866,78.628" style="fill:none;stroke:#044421;stroke-width:20.83px;"/><path d="M1059.78,2105.95c7.996,175.911 24.482,171.208 44.227,348.909" style="fill:none;stroke:#044421;stroke-width:20.83px;"/><path d="M1115.01,2038.72c-2.772,44.35 -5.712,95.834 6.29,191.85" style="fill:none;stroke:#044421;stroke-width:20.83px;"/></svg>