<?xml version="1.0" encoding="UTF-8" standalone="no"?><!DOCTYPE svg PUBLIC "-//W3C//DTD SVG 1.1//EN" "http://www.w3.org/Graphics/SVG/1.1/DTD/svg11.dtd"><svg width="100%" height="100%" viewBox="0 0 4500 4500" version="1.1" xmlns="http://www.w3.org/2000/svg" xmlns:xlink="http://www.w3.org/1999/xlink" xml:space="preserve" xmlns:serif="http://www.serif.com/" style="fill-rule:evenodd;clip-rule:evenodd;stroke-linecap:round;stroke-linejoin:round;stroke-miterlimit:1.5;"><rect id="Mesa-de-trabajo1" serif:id="Mesa de trabajo1" x="0" y="0" width="4500" height="4500" style="fill:none;"/><path d="M1030.6,1927.41l2422.76,-424.851" style="fill:none;stroke:#d9332e;stroke-width:41.67px;"/><path d="M3442.71,1418.85l312.93,1764.35l-2440,432.766l-400.43,-2257.68l2160.6,-383.211" style="fill:none;stroke:#044421;stroke-width:62.5px;"/><path d="M1798.54,2151.84l76.065,428.867l-462.545,82.039l-76.065,-428.868l462.545,-82.038Z" style="fill:none;stroke:#d9332e;stroke-width:41.67px;"/><path d="M3249.42,1868.13l76.065,428.868l-462.545,82.038l-76.065,-428.867l462.545,-82.039Z" style="fill:none;stroke:#d9332e;stroke-width:41.67px;"/><path d="M1916.59,2812.53l76.065,428.868l-462.545,82.038l-76.065,-428.868l462.545,-82.038Z" style="fill:none;stroke:#d9332e;stroke-width:41.67px;"/><path d="M2653.64,2682.99l76.065,428.868l-462.545,82.038l-76.065,-428.868l462.545,-82.038Z" style="fill:none;stroke:#d9332e;stroke-width:41.67px;"/><path d="M3075.81,975.068c-0.154,-4.947 -0.232,-9.913 -0.232,-14.897c0,-259.395 210.596,-469.991 469.991,-469.991c259.396,-0 469.992,210.596 469.992,469.991c-0,259.396 -210.596,469.992 -469.992,469.992c-35.329,-0 -69.753,-3.907 -102.863,-11.311" style="fill:none;stroke:#d9332e;stroke-width:83.33px;"/><path d="M3442.71,1418.85c-205.32,-45.916 -360.111,-226.336 -366.896,-443.784" style="fill:none;stroke:#d9332e;stroke-width:83.33px;"/><path d="M3366.64,2544.65l76.065,428.868l-462.545,82.038l-76.065,-428.867l462.545,-82.039Z" style="fill:none;stroke:#d9332e;stroke-width:41.67px;"/><circle cx="3985.55" cy="2907.18" r="78.614" style="fill:none;stroke:#d9332e;stroke-width:83.33px;"/><circle cx="2062.52" cy="4024.05" r="78.614" style="fill:#d9332e;"/><circle cx="2197.76" cy="3872.22" r="52.235" style="fill:#044421;"/><circle cx="2961.83" cy="683.721" r="52.235" style="fill:#044421;"/><circle cx="2168.35" cy="475.949" r="78.614" style="fill:none;stroke:#044421;stroke-width:83.33px;"/><g><path d="M3491.63,3599.5l217.314,154.144" style="fill:none;stroke:#044421;stroke-width:104.17px;"/><path d="M3522.15,3799.23l160.875,-239.954" style="fill:none;stroke:#044421;stroke-width:104.17px;"/></g><g><path d="M373.53,1550.84l216.253,58.041" style="fill:none;stroke:#044421;stroke-width:104.17px;"/><path d="M455.887,1699.33l56.738,-236.061" style="fill:none;stroke:#044421;stroke-width:104.17px;"/></g><path d="M2153.78,2346.88c-42.811,-72.597 -87.592,-252.5 5.602,-300.253c74.251,-38.046 6.431,55.814 117.94,155.188c73.856,65.819 208.849,247.304 138.924,280.395c-69.926,33.09 -219.656,-62.733 -262.466,-135.33Z" style="fill:none;stroke:#044421;stroke-width:62.5px;"/><path d="M2475.47,2053.47c-0,0 98.797,67.74 118.058,187.366c19.857,123.331 -30.969,174.401 -46.041,173.479c-62.127,-3.799 -58.08,-107.834 -102.091,-157.05c-44.011,-49.216 -214.15,-202.078 -167.079,-236.571c47.07,-34.493 133.519,-3.099 197.153,32.776Z" style="fill:none;stroke:#044421;stroke-width:62.5px;"/><path d="M1699.81,1018.39l69.616,386.11c3.158,17.514 -8.498,34.297 -26.012,37.455l-63.466,11.443c-17.515,3.158 -34.297,-8.498 -37.455,-26.012l-69.616,-386.11c-3.158,-17.514 8.498,-34.297 26.012,-37.455l63.466,-11.443c17.515,-3.158 34.297,8.498 37.455,26.012Z" style="fill:#d9332e;"/><path d="M2616.82,850.443l69.615,386.11c3.158,17.515 -8.497,34.297 -26.012,37.455l-63.466,11.443c-17.514,3.158 -34.297,-8.497 -37.455,-26.012l-69.616,-386.11c-3.157,-17.514 8.498,-34.297 26.012,-37.455l63.467,-11.443c17.514,-3.158 34.297,8.498 37.455,26.012Z" style="fill:#d9332e;"/><path d="M3442.71,876.336l102.863,262.423c0,0 245,-556.337 580.901,-724.288" style="fill:none;stroke:#044421;stroke-width:83.33px;"/><path d="M616.247,2527.03l601.263,-114.207" style="fill:none;stroke:#d9332e;stroke-width:83.33px;"/><path d="M2207.27,2322.93c32.189,21.46 30.028,24.635 51.392,28.908" style="fill:none;stroke:#044421;stroke-width:20.83px;"/><path d="M2258.66,2383.95c25.584,8.528 25.204,6.177 52.998,8.03" style="fill:none;stroke:#044421;stroke-width:20.83px;"/><path d="M2425.69,2090.06c17.574,2.51 25.895,3.411 44.968,22.484" style="fill:none;stroke:#044421;stroke-width:20.83px;"/><path d="M2491.53,2146.27c1.657,3.314 16.059,32.119 25.696,38.544" style="fill:none;stroke:#044421;stroke-width:20.83px;"/><path d="M2188.81,2179.47c0.624,3.74 2.827,16.959 25.696,39.828c16.702,16.703 17.386,17.044 19.272,17.988" style="fill:none;stroke:#044421;stroke-width:20.83px;"/></svg>