<?xml version="1.0" encoding="UTF-8" standalone="no"?><!DOCTYPE svg PUBLIC "-//W3C//DTD SVG 1.1//EN" "http://www.w3.org/Graphics/SVG/1.1/DTD/svg11.dtd"><svg width="100%" height="100%" viewBox="0 0 4500 4500" version="1.1" xmlns="http://www.w3.org/2000/svg" xmlns:xlink="http://www.w3.org/1999/xlink" xml:space="preserve" xmlns:serif="http://www.serif.com/" style="fill-rule:evenodd;clip-rule:evenodd;stroke-linecap:round;stroke-linejoin:round;stroke-miterlimit:1.5;"><rect id="Artboard14" x="0" y="0" width="4500" height="4500" style="fill:none;"/><path d="M964.643,1547.67l-13.574,2.718c-48.698,9.75 -96.151,-21.872 -105.9,-70.57l-6.433,-32.128c-9.75,-48.698 21.871,-96.151 70.57,-105.901l1777.96,-355.967" style="fill:none;stroke:#81a190;stroke-width:62.5px;"/><path d="M2706.13,1199.01c-0.249,-0.824 -0.495,-1.648 -0.74,-2.474" style="fill:none;stroke:#044421;stroke-width:62.5px;"/><path d="M2687.27,985.827c30.241,-262.397 253.41,-466.422 523.856,-466.422c291.049,-0 527.343,236.294 527.343,527.343c0,291.049 -236.294,527.343 -527.343,527.343c-12.724,0 -25.344,-0.451 -37.844,-1.339" style="fill:none;stroke:#81a190;stroke-width:83.33px;"/><path d="M2706.13,1199.01l-1741.49,348.665" style="fill:none;stroke:#044421;stroke-width:62.5px;"/><path d="M3173.28,1572.75c158.266,385.559 249.142,952.684 148.249,1724.37l-1877.87,266.687c-342.925,-290.942 -654.433,-1017.33 -479.017,-2016.13" style="fill:none;stroke:#044421;stroke-width:62.5px;"/><path d="M964.643,1547.67c0.085,-0.484 0.171,-0.969 0.256,-1.453l1740.5,-349.686" style="fill:none;stroke:#81a190;stroke-width:62.5px;"/><circle cx="2987.47" cy="3825.57" r="92.597" style="fill:none;stroke:#d9332e;stroke-width:62.5px;"/><circle cx="1403.43" cy="683.456" r="78.614" style="fill:none;stroke:#044421;stroke-width:62.5px;"/><path d="M2718.6,2047.91l122.652,604.091c25.216,124.197 -55.143,245.502 -179.341,270.719l-877.134,178.089c-124.198,25.216 -245.502,-55.144 -270.719,-179.341l-122.651,-604.092c-25.217,-124.197 55.143,-245.501 179.34,-270.718l877.135,-178.089c124.197,-25.216 245.502,55.143 270.718,179.341Z" style="fill:none;stroke:#d9332e;stroke-width:62.5px;"/><g><path d="M437.608,3166.18l207.997,91.476" style="fill:none;stroke:#044421;stroke-width:83.33px;"/><path d="M497.386,3327.8l93.213,-228.066" style="fill:none;stroke:#044421;stroke-width:83.33px;"/></g><g><path d="M2078.54,2761.03c0,-0 -294.411,-92.68 -304.345,-311.341c-9.934,-218.661 234.712,-260.942 364.088,-232.535c129.376,28.406 214.07,69.573 286.935,156.914c-0,-0 -157.745,-49.937 -288.289,-74.099c-127.345,-23.57 -231.209,31.65 -255.329,122.836c-24.12,91.185 45.048,151.161 98.638,216.016c50.224,60.78 94.474,119.995 98.302,122.209Z" style="fill:#044421;"/><path d="M2262.26,2574.68l65.986,81.077c0,-0 -65.035,36.518 -77.093,32.933c-0,0 -108.371,-120.912 -136.115,-154.877c-27.745,-33.964 -30.199,-56.723 -12.494,-70.56c17.706,-13.838 82.965,4.783 156.946,26.182c73.98,21.399 223.814,55.964 238.976,67.922c-0,0 7.648,-52.022 -13.577,-88.457c0,0 -313.536,-100.174 -409.71,-92.65c-96.175,7.525 -117.621,107.36 -78.404,155.772c39.217,48.411 181.572,207.97 213.987,241.086c0,0 14.223,8.513 57.263,4.471c43.041,-4.041 190.646,-49.32 214.653,-141.588c0,0 -2.698,-13.76 -220.418,-61.311Z" style="fill:#044421;"/></g><path d="M3638.34,2360.39c66.075,-85.066 260.511,-222.984 364.736,-134.669c83.039,70.363 -64.06,33.917 -128.016,213.257c-42.36,118.783 -193.537,364.692 -268.436,297.139c-74.899,-67.554 -34.36,-290.661 31.716,-375.727Z" style="fill:none;stroke:#d9332e;stroke-width:41.67px;"/><path d="M376.699,1921.37c-50.69,-41.039 -131.81,-160.429 -77.075,-222.447c43.61,-49.411 19.751,39.194 127.54,80.1c71.391,27.094 218.414,121.614 176.605,166.131c-41.81,44.518 -176.379,17.254 -227.07,-23.784Z" style="fill:none;stroke:#d9332e;stroke-width:41.67px;"/><path d="M4141.39,2570.04c0,0 -32.188,149.338 -166.744,228.544c-138.724,81.659 -225.733,45.274 -232.169,26.923c-26.526,-75.646 100.906,-119.805 138.196,-195.293c37.291,-75.487 136.366,-349.705 201.513,-309.982c65.146,39.722 70.589,157.272 59.204,249.808Z" style="fill:none;stroke:#d9332e;stroke-width:41.67px;"/><path d="M517.755,1605.39c-0,-0 90.013,21.308 136.32,103.732c47.742,84.977 24.654,137.206 13.466,140.878c-46.119,15.135 -71.296,-62.548 -116.54,-86.044c-45.243,-23.496 -210.039,-86.82 -185.197,-125.774c24.842,-38.953 96.071,-40.813 151.951,-32.792Z" style="fill:none;stroke:#d9332e;stroke-width:41.67px;"/><path d="M3173.28,1572.75c-221.419,-15.732 -405.24,-168.418 -467.147,-373.742" style="fill:none;stroke:#81a190;stroke-width:83.33px;"/><path d="M2705.39,1196.54c-14.063,-47.488 -21.612,-97.764 -21.612,-149.788c-0,-20.603 1.184,-40.931 3.487,-60.921" style="fill:none;stroke:#81a190;stroke-width:83.33px;"/><path d="M2939.71,1029.01l120.163,289.545c-0,0 286.203,-613.836 678.597,-799.145" style="fill:none;stroke:#d9332e;stroke-width:125px;"/><path d="M3602.64,3360.72l4.41,32.467c6.684,49.213 -27.843,94.595 -77.056,101.279l-2166.48,294.267c-49.213,6.684 -94.594,-27.843 -101.279,-77.056l-4.41,-32.468c-6.684,-49.213 27.844,-94.594 77.056,-101.279l2166.48,-294.266c49.213,-6.685 94.594,27.843 101.279,77.056Z" style="fill:none;stroke:#81a190;stroke-width:62.5px;"/></svg>