<?xml version="1.0" encoding="UTF-8" standalone="no"?><!DOCTYPE svg PUBLIC "-//W3C//DTD SVG 1.1//EN" "http://www.w3.org/Graphics/SVG/1.1/DTD/svg11.dtd"><svg width="100%" height="100%" viewBox="0 0 4500 4500" version="1.1" xmlns="http://www.w3.org/2000/svg" xmlns:xlink="http://www.w3.org/1999/xlink" xml:space="preserve" xmlns:serif="http://www.serif.com/" style="fill-rule:evenodd;clip-rule:evenodd;stroke-linecap:round;stroke-linejoin:round;stroke-miterlimit:1.5;"><rect id="Artboard11" x="0" y="0" width="4500" height="4500" style="fill:none;"/><rect x="863.132" y="1747.29" width="1705.99" height="1705.99" style="fill:none;stroke:#044421;stroke-width:62.5px;"/><circle cx="2202.83" cy="3870.8" r="65.954" style="fill:none;stroke:#d9332e;stroke-width:62.5px;"/><circle cx="2589.85" cy="884.014" r="65.954" style="fill:#044421;"/><circle cx="3060.06" cy="696.023" r="100.416" style="fill:none;stroke:#d9332e;stroke-width:62.5px;"/><path d="M472.199,2288.74l658.947,0" style="fill:none;stroke:#d9332e;stroke-width:62.5px;"/><path d="M613.491,2454.16l469.409,0" style="fill:none;stroke:#d9332e;stroke-width:62.5px;"/><g><path d="M472.541,3204.44l152.338,94.225" style="fill:none;stroke:#044421;stroke-width:62.5px;"/><path d="M501.479,3337.16l97.783,-167.814" style="fill:none;stroke:#044421;stroke-width:62.5px;"/></g><g><path d="M3154.23,2441.57c0,-0 -239.923,61.218 -277.953,-86.381c-38.031,-147.599 144.768,-281.306 248.489,-316.763c103.721,-35.456 174.755,-42.995 243.079,-13.425c-0,0 -128.589,32.607 -232.621,71.509c-101.482,37.949 -173.913,120.594 -179.85,194.2c-5.937,73.606 55.736,85.751 106.072,107.927c47.174,20.784 89.524,43.029 92.784,42.933Z" style="fill:#044421;"/><path d="M3270.04,2233.81l62.149,28.155c-0,0 -45.084,53.097 -54.881,55.751c-0,-0 -100.369,-37.738 -126.483,-49.489c-26.114,-11.75 -31.168,-26.507 -19.435,-43.667c11.733,-17.161 64.647,-32.065 124.673,-48.76c60.027,-16.696 180.379,-56.602 193.733,-54.765c-0,-0 -1.327,-39.386 -22.756,-55.633c0,-0 -255.713,64.17 -328.838,110.416c-73.125,46.246 -75.799,124.718 -38.831,141.608c36.969,16.889 168.914,66.967 198.512,76.137c0,-0 12.151,-0.156 44.783,-21.32c32.631,-21.164 140.177,-115.563 145.876,-189.872c-0,0 -3.992,-8.404 -178.502,51.439Z" style="fill:#044421;"/></g><path d="M3619.02,1114.86l-1052.98,623.912l-1703.77,0l1046.99,-520.21l1709.77,-103.702Z" style="fill:none;stroke:#044421;stroke-width:62.5px;"/><path d="M2945.09,1159.48l-1018.02,579.29l-520.228,0l1063.09,-552.416l475.153,-26.874Z" style="fill:#d9332e;"/><path d="M3619.45,1121.23l48.837,1462.17l-1100.54,871.51l2.793,-1713.24l1048.91,-620.441Z" style="fill:none;stroke:#044421;stroke-width:62.5px;"/><path d="M1927.07,1738.77l0,779.529l-268.158,-278.403l-252.07,278.403l0,-779.529l520.228,0Z" style="fill:#d9332e;"/><path d="M2914.13,3039.39c-0,0 68.969,-220.183 211.506,-198.702c142.537,21.481 165.527,252.406 298.867,112.777c133.341,-139.629 202.31,-187.962 285.074,-80.555c82.763,107.407 188.516,96.666 275.877,-37.592" style="fill:none;stroke:#d9332e;stroke-width:62.5px;"/><path d="M3529.78,1339.63c0,28.307 0,302.712 3.932,353.819" style="fill:none;stroke:#044421;stroke-width:20.83px;"/><path d="M3568.62,1592.17c-0,49.456 -1.101,48.586 -2.516,98.126c-0.339,11.871 -0,10.996 -0,148.447" style="fill:none;stroke:#044421;stroke-width:20.83px;"/><path d="M2391.7,2856.04c13.308,186.29 26.985,183.189 34.4,368.562" style="fill:none;stroke:#044421;stroke-width:20.83px;"/><path d="M2475.24,3077.17c25.362,152.172 2.896,152.947 24.571,304.677" style="fill:none;stroke:#044421;stroke-width:20.83px;"/><path d="M1369.56,1589.41c12.795,-8.53 88.44,-58.961 162.167,-103.197c40.951,-24.571 86.128,-58.454 93.369,-63.884" style="fill:none;stroke:#044421;stroke-width:20.83px;"/><path d="M1246.55,1636.71c8.045,-3.218 3.442,-10.527 93.094,-55.353" style="fill:none;stroke:#044421;stroke-width:20.83px;"/><path d="M1881.33,1908.28c-0,114.186 -1.074,113.264 -6.039,227.451c-3.068,70.571 -2.013,69.938 -2.013,140.899" style="fill:none;stroke:#ebebeb;stroke-width:20.83px;"/><path d="M2189.29,1377.4c30.321,-15.959 224.921,-136.615 225.438,-136.873" style="fill:none;stroke:#ebebeb;stroke-width:20.83px;"/><path d="M2452.97,1220.39c14.402,-7.201 12.84,-8.976 28.18,-14.089" style="fill:none;stroke:#ebebeb;stroke-width:20.83px;"/></svg>