<?xml version="1.0" encoding="UTF-8" standalone="no"?><!DOCTYPE svg PUBLIC "-//W3C//DTD SVG 1.1//EN" "http://www.w3.org/Graphics/SVG/1.1/DTD/svg11.dtd"><svg width="100%" height="100%" viewBox="0 0 4500 4500" version="1.1" xmlns="http://www.w3.org/2000/svg" xmlns:xlink="http://www.w3.org/1999/xlink" xml:space="preserve" xmlns:serif="http://www.serif.com/" style="fill-rule:evenodd;clip-rule:evenodd;stroke-linecap:round;stroke-linejoin:round;stroke-miterlimit:1.5;"><rect id="Artboard13" x="0" y="0" width="4500" height="4500" style="fill:none;"/><path d="M1864.38,1882.84l-738.422,54.693l141.295,-356.999l404.778,-29.981l192.349,332.287Z" style="fill:none;stroke:#044421;stroke-width:62.5px;"/><path d="M906.266,2225.97l1933.72,-137.092" style="fill:none;stroke:#81a190;stroke-width:62.5px;"/><circle cx="2741.17" cy="1454.38" r="87.399" style="fill:none;stroke:#044421;stroke-width:62.5px;"/><circle cx="581.162" cy="1199.98" r="37.906" style="fill:#044421;"/><path d="M134.697,2052.64l438.456,-0" style="fill:none;stroke:#d9332e;stroke-width:62.5px;"/><path d="M3546.9,2673.71l818.402,0" style="fill:none;stroke:#d9332e;stroke-width:62.5px;"/><g><path d="M1982.09,900.936l175.231,62.957" style="fill:none;stroke:#d9332e;stroke-width:62.5px;"/><path d="M2040.14,1029.65l63.237,-191.735" style="fill:none;stroke:#d9332e;stroke-width:62.5px;"/></g><g><path d="M3015.28,2862.86c0,-0 -208.511,-65.639 -215.547,-220.501c-7.035,-154.863 166.231,-184.807 257.859,-164.689c91.628,20.118 151.611,49.274 203.216,111.131c-0,0 -111.72,-35.366 -204.175,-52.479c-90.19,-16.693 -163.749,22.416 -180.832,86.996c-17.083,64.581 31.905,107.057 69.859,152.989c35.57,43.047 66.909,84.985 69.62,86.553Z" style="fill:#044421;"/><path d="M3145.4,2730.88l46.733,57.422c-0,0 -46.06,25.863 -54.6,23.324c-0,0 -76.752,-85.634 -96.401,-109.688c-19.649,-24.055 -21.388,-40.173 -8.848,-49.973c12.54,-9.801 58.758,3.388 111.153,18.543c52.396,15.155 158.512,39.635 169.25,48.104c0,0 5.417,-36.843 -9.615,-62.647c-0,-0 -222.056,-70.947 -290.169,-65.618c-68.114,5.329 -83.303,76.035 -55.528,110.322c27.774,34.287 128.595,147.291 151.552,170.745c0,-0 10.073,6.029 40.555,3.166c30.483,-2.862 135.022,-34.93 152.024,-100.277c0,0 -1.911,-9.745 -156.106,-43.423Z" style="fill:#044421;"/></g><path d="M3139.5,2332.52l-2353.78,144.667l261.392,-529.224l1505.04,-111.474l587.344,496.031Z" style="fill:none;stroke:#81a190;stroke-width:62.5px;"/><path d="M3370.53,3317.57l280.204,-1013l-3031.66,194.79l288.904,686.789" style="fill:none;stroke:#044421;stroke-width:62.5px;"/><path d="M427.461,3442.01c-0,-0 157.216,-208.658 480.511,-255.854" style="fill:none;stroke:#81a190;stroke-width:62.5px;"/><path d="M907.972,3186.15c59.006,-8.614 123.545,-11.849 193.671,-7.456c454.34,28.466 527.621,334.475 952.648,149.446c425.027,-185.028 644.868,-249.076 908.679,-106.747c124.199,67.007 264.639,99.313 407.557,96.177" style="fill:none;stroke:#81a190;stroke-width:62.5px;"/><path d="M3370.53,3317.57c160.655,-3.526 324.442,-51.839 471.811,-145.992" style="fill:none;stroke:#81a190;stroke-width:62.5px;"/><path d="M1412.48,1449.06c-185.082,-46.272 108.952,-318.578 -39.313,-466.844" style="fill:none;stroke:#d9332e;stroke-width:20.83px;"/><path d="M1499.16,1437.97c-14.38,-7.19 -55.287,-55.221 -55.353,-55.353c-31.939,-63.877 45.914,-150.312 57.869,-233.992" style="fill:none;stroke:#d9332e;stroke-width:20.83px;"/><path d="M1536.9,1256.82c21.553,-86.21 44.48,-85.863 20.129,-171.091c-9.125,-31.935 -10.46,-30.446 -15.097,-62.901" style="fill:none;stroke:#d9332e;stroke-width:20.83px;"/><path d="M781.076,2647.46c3.496,6.993 6.467,3.899 52.333,82.526c12.259,21.015 89.918,182.539 112.719,273.746" style="fill:none;stroke:#044421;stroke-width:20.83px;"/><path d="M838.829,2617.27c1.409,7.047 84.354,162.839 96.616,224.149" style="fill:none;stroke:#044421;stroke-width:20.83px;"/><path d="M2433.8,2201.72c20.05,-0.646 153.596,-4.954 249.591,-24.154c132.451,-26.491 134.473,-12.89 144.924,-18.115" style="fill:none;stroke:#81a190;stroke-width:20.83px;"/><path d="M1083.4,2056.58c37.074,-6.179 51.096,-8.516 467.826,-43.244" style="fill:none;stroke:#81a190;stroke-width:20.83px;"/></svg>